<?xml version="1.0" encoding="utf-8"?>
<COLLADA xmlns="http://www.collada.org/2005/11/COLLADASchema" version="1.4.1" xmlns:xsi="http://www.w3.org/2001/XMLSchema-instance">
  <asset>
    <contributor>
      <author>Blender User</author>
      <authoring_tool>Blender 4.5.5 LTS commit date:2025-11-17, commit time:16:03, hash:836beaaf597a</authoring_tool>
    </contributor>
    <created>2025-12-17T13:50:00</created>
    <modified>2025-12-17T13:50:00</modified>
    <unit name="meter" meter="1"/>
    <up_axis>Z_UP</up_axis>
  </asset>
  <library_effects>
    <effect id="RocksStylized_M-effect">
      <profile_COMMON>
        <newparam sid="RocksStylized_M_baseColor_png-surface">
          <surface type="2D">
            <init_from>RocksStylized_M_baseColor_png</init_from>
          </surface>
        </newparam>
        <newparam sid="RocksStylized_M_baseColor_png-sampler">
          <sampler2D>
            <source>RocksStylized_M_baseColor_png-surface</source>
          </sampler2D>
        </newparam>
        <technique sid="common">
          <lambert>
            <emission>
              <color sid="emission">0 0 0 1</color>
            </emission>
            <diffuse>
              <texture texture="RocksStylized_M_baseColor_png-sampler" texcoord="SM_Rocks_02_RocksStylized_M_0-mesh-map"/>
            </diffuse>
            <index_of_refraction>
              <float sid="ior">1.5</float>
            </index_of_refraction>
          </lambert>
        </technique>
      </profile_COMMON>
    </effect>
  </library_effects>
  <library_images>
    <image id="RocksStylized_M_baseColor_png" name="RocksStylized_M_baseColor_png">
      <init_from>RocksStylized_M_baseColor.png</init_from>
    </image>
  </library_images>
  <library_materials>
    <material id="RocksStylized_M-material" name="RocksStylized_M">
      <instance_effect url="#RocksStylized_M-effect"/>
    </material>
  </library_materials>
  <library_geometries>
    <geometry id="SM_Rocks_02_RocksStylized_M_0-mesh" name="SM_Rocks_02_RocksStylized_M_0">
      <mesh>
        <source id="SM_Rocks_02_RocksStylized_M_0-mesh-positions">
          <float_array id="SM_Rocks_02_RocksStylized_M_0-mesh-positions-array" count="420">0.6595368 -0.04114097 0.6756005 0.6913877 0.1556323 -0.6356776 0.717207 -0.2700981 -0.6104097 0.3750399 0.423149 -0.6625692 -0.5402761 0.1192643 -0.6479566 0.4513446 -0.3737469 -0.6829179 -0.759341 0.2953403 -0.3967867 -0.7531545 -0.00919795 0.1948185 -0.9369255 -0.2193474 -0.3957527 0.3971849 0.5698749 -0.6332164 0.04914677 0.6093177 -0.6212475 -0.08518421 0.553228 -0.6410471 -0.7136832 0.02522635 0.2756305 0.006613731 0.341485 0.5326896 0.2704597 0.2107845 0.6821736 -0.6385086 -0.3451197 -0.01452499 0.06388533 -0.3223557 0.6542586 0.3854997 -0.4962745 0.04420238 0.3024293 -0.2856636 0.7764165 0.653584 0.2247187 0.2227725 0.6269164 0.5250768 -0.207083 0.6634452 0.4673516 -0.5789119 0.4786445 -0.0580126 0.8182986 0.3169296 -0.3170707 0.7566866 0.6264781 0.04138022 0.8368266 0.6580028 -0.2548802 0.5181975 -0.3907815 -0.4685562 -0.4386212 -0.680051 -0.2773233 -0.6507354 0.717207 -0.2700981 -0.6104097 0.671911 0.2117901 -0.6599802 0.6625028 0.001491904 -0.6716933 0.6246557 -0.5497199 -0.666766 -0.7418628 -0.413749 -0.6284103 0.03034383 -0.5521082 -0.5823376 -0.8208058 -0.4135978 -0.4267699 -0.7531545 -0.00919795 0.1948185 -0.4873256 -0.2252964 0.4050015 -0.3716072 -0.2759386 0.4743316 -0.5347374 0.5423954 0.07791489 -0.2806721 0.5803781 -0.08764159 0.1797534 0.5272194 0.5674076 -0.5905814 0.3720414 0.2339825 -0.6069917 0.6217739 -0.5558207 -0.4395095 0.6386391 -0.578876 -0.6335389 0.616127 -0.4861227 -0.3367055 0.6217188 -0.6043787 -0.4667102 0.5723112 -0.6196493 -0.9369255 -0.2193474 -0.3957527 -0.8484359 0.06628972 -0.6238378 -0.7748651 0.07348591 -0.6385399 -0.7470467 0.3158047 -0.6235277 -0.9012647 -0.258568 -0.60871 -0.7940278 -0.4231941 -0.5810036 -0.6326437 -0.477409 -0.5703684 0.6181463 0.5280017 -0.5734247 0.4043341 0.6152154 -0.5459697 0.1238222 0.5715125 0.0586068 0.03295725 0.6300283 -0.5780623 0.6037835 0.5412966 0.0794577 0.5878168 0.3687891 0.7362236 0.5813287 0.5644327 0.05982518 0.5749654 0.4967919 0.5234416 -0.601551 0.4409409 -0.6295253 -0.666068 0.5917235 -0.5395293 -0.7369293 0.4745721 -0.5902824 -0.612092 0.5955911 -0.5910791 0.03034383 -0.5521082 -0.5823376 0.6831697 -0.5260642 0.1314812 0.6595368 -0.04114097 0.6756005 0.717207 -0.2700981 -0.6104097 0.6924366 -0.3771933 0.3295395 -0.6416954 0.5484691 -0.3217744 0.6735016 -0.5934298 -0.6120365 0.7121126 -0.5282449 -0.1148205 0.4265611 0.4993761 0.6945086 0.5534703 0.5288996 0.4908966 -0.7940278 -0.4231941 -0.5810036 -0.9012647 -0.258568 -0.60871 -0.6326437 -0.477409 -0.5703684 0.5642227 0.3391932 -0.663137 0.6031537 0.4805998 -0.6342507 0.4284252 0.497966 -0.6536173 -0.8566027 0.1285216 -0.5926814 0.4660382 0.6048032 -0.5034196 0.6181463 0.5280017 -0.5734247 0.4538018 0.6001551 -0.5849065 0.666042 -0.5909921 -0.2751001 -0.5395399 0.4988948 0.2042464 -0.5504339 0.4209101 0.253253 -0.3808059 0.515379 0.287801 0.6735016 -0.5934298 -0.6120365 0.6735016 -0.5934298 -0.6120365 -0.9098649 -0.046476 -0.584519 -0.9012647 -0.258568 -0.60871 0.4228181 0.5177008 0.6484596 0.5600463 0.3701169 0.7853686 0.5324932 0.467673 0.7084736 -0.6458952 0.5101146 -0.6137422 0.7121126 -0.5282449 -0.1148205 -0.666068 0.5917235 -0.5395293 -0.6069917 0.6217739 -0.5558207 -0.6335389 0.616127 -0.4861227 -0.662821 0.5869088 -0.4778575 0.6080572 0.1561285 0.8391765 0.6044247 0.2637079 0.8076986 0.6423416 0.07987803 0.8234905 -0.7274209 0.03958141 0.248255 0.5713702 0.4032787 0.7500455 0.6913877 0.1556323 -0.6356776 0.6634452 0.4673516 -0.5789119 0.6805573 -0.4706567 0.2655804 0.6924366 -0.3771933 0.3295395 0.5484746 -0.4409623 0.4174296 0.4747278 -0.3475136 0.5855376 -0.6215012 0.2631306 0.2660017 -0.6313426 -0.3774351 -0.6450446 -0.4614531 -0.3010972 0.3305045 -0.4880771 0.3554204 -0.6417365 -0.5347374 0.5423954 0.07791489 0.2597609 -0.3439695 0.7070686 0.4210765 -0.4026945 0.5468756 0.2592475 -0.3185499 0.7556446 0.4783419 0.509562 0.6687065 -0.7929069 0.3316548 -0.6087883 0.5534703 0.5288996 0.4908966 -0.7369293 0.4745721 -0.5902824 -0.7929069 0.3316548 -0.6087883 0.04914677 0.6093177 -0.6212475 -0.3367055 0.6217188 -0.6043787 0.4538018 0.6001551 -0.5849065 0.6595368 -0.04114097 0.6756005 0.6913877 0.1556323 -0.6356776 -0.4395095 0.6386391 -0.578876 -0.6069917 0.6217739 -0.5558207 0.6181463 0.5280017 -0.5734247 0.5813287 0.5644327 0.05982518 0.6400077 -0.4989735 0.2496055 -0.8773099 0.044954 -0.6077861 -0.9098649 -0.046476 -0.584519 -0.8566027 0.1285216 -0.5926814</float_array>
          <technique_common>
            <accessor source="#SM_Rocks_02_RocksStylized_M_0-mesh-positions-array" count="140" stride="3">
              <param name="X" type="float"/>
              <param name="Y" type="float"/>
              <param name="Z" type="float"/>
            </accessor>
          </technique_common>
        </source>
        <source id="SM_Rocks_02_RocksStylized_M_0-mesh-normals">
          <float_array id="SM_Rocks_02_RocksStylized_M_0-mesh-normals-array" count="417">-0.9974797 -0.06248891 -0.03360593 -0.01650935 -0.1101031 0.9937831 0.04454976 -0.03167372 0.9985049 -0.02521514 0.08537441 0.9960299 0.9178866 -0.3424739 -0.2004891 0.7842763 -0.618436 -0.04947388 0.9432697 -0.3280155 0.05146056 -0.1147006 -0.6438028 0.756546 0.01585441 -0.01104736 0.9998133 0.0272625 -0.2990528 0.9538471 0.8519974 0.1007424 -0.513762 0.4084733 -0.2087296 -0.888584 0.4108921 -0.1743896 -0.8948497 0.698868 0.5863988 -0.4095366 0.3458656 0.6458672 -0.680612 0.1545312 0.9699876 -0.1877349 -0.06022655 0.5051278 -0.8609406 -0.9891406 -0.1367555 -0.0538398 -0.725348 -0.6883367 -0.007929086 -0.8969405 -0.4398764 -0.04479658 0.0625441 0.1284915 -0.9897364 0.1347661 0.6924361 -0.708781 -0.4471151 0.07893043 -0.8909872 -0.8572836 0.3398216 -0.3867637 0.1102679 0.9619843 -0.2498542 0.1522322 0.07154738 0.9857518 0.1106361 0.09485363 0.9893243 -0.607398 -0.1206731 0.7851788 -0.586041 -0.02042579 0.810024 -0.381072 0.466684 0.7981168 0.3622818 0.4765065 0.8010578 0.01913988 0.1272841 0.9916817 0.5669447 0.8210472 -0.06674772 0.3893563 0.788261 -0.4764937 0.5360645 0.2537669 -0.8051319 0.3835434 0.7466984 -0.5434484 0.1100516 -0.9739984 -0.19803 0.04153496 -0.9917773 -0.1210486 0.3024543 -0.634925 -0.7109091 0.7481663 -0.392247 -0.5351539 -0.05717414 -0.9464243 -0.3178244 0.03343713 -0.9972687 -0.06585699 -0.03138726 -0.9969136 -0.07195878 0.0546844 -0.2063969 0.9769392 0.08354878 -0.3872669 0.9181743 0.438114 0.877674 -0.1942794 0.4251244 -0.08821588 0.9008259 0.1634555 -0.04325407 0.985602 0.2053264 -0.1248141 0.9707021 -0.1018463 -0.05917567 0.9930385 0.2821623 0.4061305 0.8691621 0.04461109 0.2409121 0.9695212 -0.9492606 -0.3079035 -0.06402993 -0.1439903 -0.9602612 0.239093 0.001671671 -0.9962372 -0.08665269 -0.03204637 -0.9313803 0.3626345 -0.7382092 -0.6706677 -0.07247138 -0.9042745 -0.3544505 -0.2380177 0.01935619 -0.996505 -0.08125948 -0.8006962 -0.5667477 -0.1941201 0.1135139 -0.1267063 0.9854238 0.3772978 -0.5336893 0.7568503 -0.1047379 -0.07019031 0.9920199 0.3536323 -0.6228787 0.6978299 0.1243978 0.9461854 -0.2987614 -0.8486893 0.5005909 -0.1706907 -0.9975895 -0.06489008 -0.02458852 -0.9882056 0.1526659 0.01195722 -0.994374 -0.1059185 -0.001277685 0.9140623 -0.3471536 -0.2097017 -0.2107299 0.1163159 0.9705997 -0.9913675 -0.1302921 -0.01464903 0.05291646 -0.8090529 -0.585349 -0.0565046 -0.9904333 -0.1258932 0.5808396 0.8097583 -0.08316874 0.5848859 0.5506809 -0.5955326 0.163634 0.9054884 -0.3915544 -0.1592923 -0.137189 0.977653 -0.4656831 -0.430661 0.7730914 -0.09137499 -0.2382814 0.9668881 0.9276064 -0.3139896 -0.2023786 -0.2176975 -0.9755656 0.02965641 -0.3278702 -0.944655 0.01132506 -0.256756 -0.4999729 0.8271056 -0.6291708 0.7750083 -0.05921524 0.4758767 -0.7133504 -0.5144636 0.6756118 -0.4578565 -0.5778549 0.3135123 -0.7518424 -0.5800372 -0.7374563 -0.6715213 -0.07223165 0.4536361 0.8785898 -0.1493135 0.922861 -0.2744205 -0.270224 0.8634417 -0.1864106 -0.4687426 0.01808834 -0.947208 -0.3201091 -0.4697869 -0.4751566 -0.7439936 -0.395783 -0.7104539 -0.5819031 0.260679 -0.2987686 0.9180325 -0.2537446 0.958868 -0.1272242 0.7294363 -0.6373382 -0.2484405 0.6767295 -0.7359256 -0.02123337 0.8972932 -0.4412398 -0.01313567 0.7512983 -0.6451389 -0.1390925 -0.5095086 -0.2104572 -0.8343314 -0.5917363 -0.3035322 -0.7468041 -0.7070237 0.04167586 -0.7059608 0.8943401 -0.1619492 -0.4170471 -0.5799936 -0.5625889 -0.589153 -0.3665232 0.008697271 0.9303683 -0.1370078 -0.3682411 0.91958 -0.7369726 0.6035979 -0.3042055 -0.5903012 0.6033323 -0.5362227 -0.1956625 0.8819801 -0.4287508 -0.4556773 0.6875363 -0.5653778 0.8304916 -0.343773 -0.4382966 0.0805794 0.2011404 0.9762426 0.5331698 0.7507792 -0.3899498 0.04889041 -0.06510192 0.9966803 0.9791255 -0.1029146 -0.1752763 0.03662258 0.8662874 -0.4982017 -0.2502733 0.842489 -0.477049 -0.1067121 0.6837494 -0.7218722 -0.1697845 -0.8865761 -0.4302979 0.8529525 -0.2846778 -0.4375277 -0.992523 0.002413868 -0.122035 0.6126469 -0.04860126 -0.7888612 -0.6565231 0.2163618 0.7226099 -0.04986858 -0.9977224 0.04542261 -0.06117719 -0.9897863 0.1287655 -0.3076926 -0.9439938 -0.1191676 -0.7078104 0.4773839 -0.5206815 -0.9921107 -0.1195422 -0.03776484 -0.9944633 -0.09244108 -0.04997688 0.1077737 0.2410772 0.9645033 0.3642467 -0.5647848 0.7405016 -0.3015768 -0.2833865 0.9103536 -0.9789015 -0.2038024 -0.0147165 -0.3407972 0.858206 -0.3838486 0.749122 -0.0738182 0.6583063 0.05648332 -4.87182e-4 0.9984034 0.7790207 -0.1908818 0.597236</float_array>
          <technique_common>
            <accessor source="#SM_Rocks_02_RocksStylized_M_0-mesh-normals-array" count="139" stride="3">
              <param name="X" type="float"/>
              <param name="Y" type="float"/>
              <param name="Z" type="float"/>
            </accessor>
          </technique_common>
        </source>
        <source id="SM_Rocks_02_RocksStylized_M_0-mesh-map-0">
          <float_array id="SM_Rocks_02_RocksStylized_M_0-mesh-map-0-array" count="1236">0.11588 0.332424 0.08474397 0.372249 0.106611 0.381963 0.961499 0.09178799 0.942034 0.04174298 0.917797 0.09795999 0.108362 0.2254009 0.130317 0.243507 0.138162 0.2176709 0.9697301 0.09280902 0.9710751 0.07329899 0.9674809 0.06592398 0.1289129 0.2474899 0.101989 0.286058 0.105888 0.301662 0.1565859 0.256747 0.135606 0.295094 0.158522 0.3133931 0.105888 0.301662 0.130491 0.306515 0.1289129 0.2474899 0.09531098 0.341233 0.073318 0.347641 0.06997096 0.362102 0.105888 0.301662 0.119221 0.315383 0.130491 0.306515 0.132183 0.307444 0.114085 0.323401 0.134401 0.327154 0.175383 0.271378 0.1565859 0.256747 0.158522 0.3133931 0.917797 0.09795999 0.942034 0.04174298 0.9195091 0.03526598 0.9242161 0.11308 0.950471 0.108644 0.938968 0.1086159 0.90864 0.108096 0.911682 0.03243196 0.905718 0.07552599 0.171881 0.245865 0.1340129 0.2449619 0.138749 0.265055 0.139234 0.272288 0.1289129 0.2474899 0.130491 0.306515 0.09289401 0.250956 0.07991898 0.261704 0.09017598 0.294613 0.130317 0.243507 0.108362 0.2254009 0.106852 0.251254 0.07117599 0.238115 0.066208 0.2464119 0.07427799 0.2377859 0.9706861 0.05160099 0.9674071 0.04453694 0.9674809 0.06592398 0.171881 0.245865 0.164821 0.2354609 0.1340129 0.2449619 0.9380272 0.02490097 0.938655 0.02893894 0.9522951 0.02965098 0.911682 0.03243196 0.9195619 0.02268201 0.910316 0.02932298 0.911682 0.03243196 0.9077519 0.03846895 0.905718 0.07552599 0.06997096 0.362102 0.073318 0.347641 0.06637197 0.359748 0.04790699 0.291739 0.07458394 0.285152 0.05484396 0.271336 0.07709896 0.337281 0.09531098 0.341233 0.09653097 0.320011 0.065611 0.309784 0.07458394 0.285152 0.04790699 0.291739 0.09653097 0.320011 0.08682698 0.323226 0.07709896 0.337281 0.101989 0.286058 0.09017598 0.294613 0.105888 0.301662 0.9522951 0.02965098 0.938655 0.02893894 0.9597141 0.037404 0.968712 0.03279995 0.961355 0.02964591 0.9683931 0.03633302 0.182452 0.296345 0.175383 0.271378 0.155646 0.329127 0.11588 0.332424 0.106611 0.381963 0.127109 0.352486 0.07427799 0.2377859 0.07991898 0.261704 0.09289401 0.250956 0.106852 0.251254 0.108362 0.2254009 0.09370696 0.232577 0.9242161 0.11308 0.90864 0.108096 0.905718 0.1111789 0.127109 0.352486 0.106611 0.381963 0.127529 0.3713669 0.105888 0.301662 0.09017598 0.294613 0.09059596 0.309377 0.065611 0.309784 0.08141797 0.314465 0.07458394 0.285152 0.1778039 0.246392 0.174513 0.2353209 0.171881 0.245865 0.182452 0.296345 0.17949 0.256962 0.175383 0.271378 0.9572261 0.102427 0.961499 0.09178799 0.917797 0.09795999 0.965158 0.1044849 0.9657598 0.09464794 0.9572261 0.102427 0.108362 0.2254009 0.138162 0.2176709 0.116847 0.2152969 0.174513 0.2353209 0.164821 0.2354609 0.171881 0.245865 0.04807198 0.295591 0.041987 0.303442 0.065611 0.309784 0.9722259 0.09600102 0.9710751 0.07329899 0.9697301 0.09280902 0.90864 0.108096 0.905718 0.07552599 0.905718 0.1111789 0.169228 0.33155 0.182452 0.296345 0.155646 0.329127 0.09873396 0.252647 0.106852 0.251254 0.09370696 0.232577 0.103594 0.253358 0.09623396 0.262197 0.09017598 0.294613 0.127529 0.3713669 0.106611 0.381963 0.122973 0.390057 0.180701 0.335144 0.182452 0.296345 0.169228 0.33155 0.07458394 0.285152 0.07991898 0.261704 0.05484396 0.271336 0.9706861 0.05160099 0.9674809 0.06592398 0.9710751 0.07329899 0.9380272 0.02490097 0.9195619 0.02268201 0.938655 0.02893894 0.1269479 0.2130519 0.138162 0.2176709 0.138253 0.209037 0.09059596 0.309377 0.09017598 0.294613 0.08894497 0.308692 0.09716498 0.317524 0.09059596 0.309377 0.09136897 0.31607 0.9674071 0.04453694 0.9706861 0.05160099 0.9683931 0.03633302 0.96345 0.03474402 0.9683931 0.03633302 0.961355 0.02964591 0.09716498 0.317524 0.105888 0.301662 0.09059596 0.309377 0.105888 0.301662 0.09716498 0.317524 0.119221 0.315383 0.180701 0.335144 0.169228 0.33155 0.162418 0.333807 0.162418 0.333807 0.169228 0.33155 0.155646 0.329127 0.08995795 0.224856 0.08625096 0.2255889 0.08855998 0.22759 0.08855998 0.22759 0.09873396 0.252647 0.09081 0.2270159 0.130491 0.306515 0.119221 0.315383 0.114085 0.323401 0.108115 0.321508 0.102604 0.320486 0.11209 0.324481 0.05484396 0.271336 0.07991898 0.261704 0.066208 0.2464119 0.07427799 0.2377859 0.066208 0.2464119 0.07991898 0.261704 0.1340129 0.2449619 0.1289129 0.2474899 0.138749 0.265055 0.1289129 0.2474899 0.127858 0.246273 0.106852 0.251254 0.09017598 0.294613 0.08141797 0.314465 0.08894497 0.308692 0.09136897 0.31607 0.08682698 0.323226 0.095079 0.31826 0.9242161 0.11308 0.947505 0.110262 0.950471 0.108644 0.965158 0.1044849 0.950471 0.108644 0.964899 0.1085129 0.103594 0.253358 0.09017598 0.294613 0.101989 0.286058 0.103594 0.253358 0.106852 0.251254 0.09873396 0.252647 0.149667 0.3289139 0.143956 0.330711 0.162418 0.333807 0.144699 0.321035 0.1370159 0.316591 0.134401 0.327154 0.106852 0.251254 0.113735 0.250881 0.1289129 0.2474899 0.106852 0.251254 0.103594 0.253358 0.113735 0.250881 0.917797 0.09795999 0.9141049 0.03837198 0.90864 0.108096 0.9242161 0.11308 0.938968 0.1086159 0.90864 0.108096 0.09017598 0.294613 0.07991898 0.261704 0.07458394 0.285152 0.08141797 0.314465 0.09017598 0.294613 0.07458394 0.285152 0.171881 0.245865 0.138749 0.265055 0.1565859 0.256747 0.135606 0.295094 0.1441 0.267214 0.139234 0.272288 0.955311 0.04398 0.9597141 0.037404 0.938655 0.02893894 0.9674809 0.06592398 0.9597141 0.037404 0.955311 0.04398 0.09873396 0.252647 0.08855998 0.22759 0.09526997 0.2487239 0.09623396 0.262197 0.09289401 0.250956 0.09017598 0.294613 0.158522 0.3133931 0.1346219 0.305079 0.140177 0.313891 0.135606 0.295094 0.139234 0.272288 0.132677 0.304699 0.9697301 0.09280902 0.9674809 0.06592398 0.9657598 0.09464794 0.9674809 0.06592398 0.955311 0.04398 0.961499 0.09178799 0.103594 0.253358 0.09873396 0.252647 0.09623396 0.262197 0.09623396 0.262197 0.09873396 0.252647 0.09289401 0.250956 0.095079 0.31826 0.09716498 0.317524 0.09136897 0.31607 0.108115 0.321508 0.09716498 0.317524 0.102604 0.320486 0.138749 0.265055 0.1289129 0.2474899 0.139234 0.272288 0.138749 0.265055 0.139234 0.272288 0.1441 0.267214 0.9597141 0.037404 0.9674809 0.06592398 0.9674071 0.04453694 0.96345 0.03474402 0.9674071 0.04453694 0.9683931 0.03633302 0.09136897 0.31607 0.08919197 0.312008 0.08141797 0.314465 0.08919197 0.312008 0.09136897 0.31607 0.09059596 0.309377 0.132183 0.307444 0.130491 0.306515 0.114085 0.323401 0.1346219 0.305079 0.130491 0.306515 0.132183 0.307444 0.116847 0.2152969 0.105024 0.217691 0.108362 0.2254009 0.09370696 0.232577 0.108362 0.2254009 0.105024 0.217691 0.09136897 0.31607 0.08441996 0.323016 0.08682698 0.323226 0.08682698 0.323226 0.08441996 0.323016 0.07709896 0.337281 0.134401 0.327154 0.143956 0.330711 0.149667 0.3289139 0.143956 0.330711 0.134401 0.327154 0.114085 0.323401 0.105024 0.217691 0.09680098 0.2206749 0.09081 0.2270159 0.953059 0.02696996 0.96345 0.03474402 0.961355 0.02964591 0.05259299 0.271524 0.05484396 0.271336 0.06251496 0.251383 0.05259299 0.271524 0.04530096 0.293899 0.05484396 0.271336 0.101989 0.286058 0.113735 0.250881 0.103594 0.253358 0.1289129 0.2474899 0.113735 0.250881 0.101989 0.286058 0.1565859 0.256747 0.175383 0.271378 0.171881 0.245865 0.171881 0.245865 0.175383 0.271378 0.17949 0.256962 0.114085 0.323401 0.108115 0.321508 0.11209 0.324481 0.114085 0.323401 0.120863 0.327154 0.143956 0.330711 0.9674071 0.04453694 0.96345 0.03474402 0.9597141 0.037404 0.9597141 0.037404 0.96345 0.03474402 0.9522951 0.02965098 0.138749 0.265055 0.1441 0.267214 0.1565859 0.256747 0.1565859 0.256747 0.1441 0.267214 0.135606 0.295094 0.11588 0.332424 0.09531098 0.341233 0.08474397 0.372249 0.120863 0.327154 0.114085 0.323401 0.11209 0.324481 0.9683931 0.03633302 0.9706861 0.05160099 0.9715059 0.04572397 0.05484396 0.271336 0.066208 0.2464119 0.06251496 0.251383 0.9380272 0.02490097 0.9522951 0.02965098 0.953059 0.02696996 0.9522951 0.02965098 0.96345 0.03474402 0.953059 0.02696996 0.140177 0.313891 0.1370159 0.316591 0.144699 0.321035 0.1346219 0.305079 0.132183 0.307444 0.140177 0.313891 0.9722259 0.09600102 0.9697301 0.09280902 0.965158 0.1044849 0.9697301 0.09280902 0.9657598 0.09464794 0.965158 0.1044849 0.9195091 0.03526598 0.938655 0.02893894 0.9195619 0.02268201 0.9195091 0.03526598 0.942034 0.04174298 0.938655 0.02893894 0.9683931 0.03633302 0.9715059 0.04572397 0.970364 0.03628396 0.9683931 0.03633302 0.970364 0.03628396 0.968712 0.03279995 0.08474397 0.372249 0.09531098 0.341233 0.06997096 0.362102 0.964899 0.1085129 0.950471 0.108644 0.947505 0.110262 0.9195091 0.03526598 0.9195619 0.02268201 0.911682 0.03243196 0.9141049 0.03837198 0.911682 0.03243196 0.90864 0.108096 0.9684759 0.105705 0.965158 0.1044849 0.964899 0.1085129 0.9722259 0.09600102 0.965158 0.1044849 0.9684759 0.105705 0.1370159 0.316591 0.140177 0.313891 0.132183 0.307444 0.134401 0.327154 0.1370159 0.316591 0.132183 0.307444 0.9195091 0.03526598 0.911682 0.03243196 0.9141049 0.03837198 0.9195091 0.03526598 0.9141049 0.03837198 0.917797 0.09795999 0.08441996 0.323016 0.07520699 0.336923 0.07709896 0.337281 0.073318 0.347641 0.07520699 0.336923 0.06637197 0.359748 0.158522 0.3133931 0.140177 0.313891 0.151165 0.326527 0.155646 0.329127 0.149667 0.3289139 0.162418 0.333807 0.938968 0.1086159 0.9572261 0.102427 0.917797 0.09795999 0.938968 0.1086159 0.917797 0.09795999 0.90864 0.108096 0.09653097 0.320011 0.09531098 0.341233 0.11209 0.324481 0.11588 0.332424 0.11209 0.324481 0.09531098 0.341233 0.158522 0.3133931 0.135606 0.295094 0.1346219 0.305079 0.1346219 0.305079 0.135606 0.295094 0.132677 0.304699 0.05484396 0.271336 0.04530096 0.293899 0.04790699 0.291739 0.041987 0.303442 0.04807198 0.295591 0.04530096 0.293899 0.1778039 0.246392 0.171881 0.245865 0.17949 0.256962 0.911682 0.03243196 0.910316 0.02932298 0.9077519 0.03846895 0.149667 0.3289139 0.144699 0.321035 0.134401 0.327154 0.151165 0.326527 0.149667 0.3289139 0.155646 0.329127 0.09531098 0.341233 0.07709896 0.337281 0.073318 0.347641 0.07709896 0.337281 0.07520699 0.336923 0.073318 0.347641 0.936802 0.02326399 0.9380272 0.02490097 0.953059 0.02696996 0.931697 0.02135998 0.9195619 0.02268201 0.9380272 0.02490097 0.950471 0.108644 0.9572261 0.102427 0.938968 0.1086159 0.965158 0.1044849 0.9572261 0.102427 0.950471 0.108644 0.931697 0.02135998 0.9380272 0.02490097 0.936802 0.02326399 0.138162 0.2176709 0.1269479 0.2130519 0.116847 0.2152969 0.065611 0.309784 0.04790699 0.291739 0.04807198 0.295591 0.04790699 0.291739 0.04530096 0.293899 0.04807198 0.295591 0.108115 0.321508 0.119221 0.315383 0.09716498 0.317524 0.114085 0.323401 0.119221 0.315383 0.108115 0.321508 0.9657598 0.09464794 0.9674809 0.06592398 0.961499 0.09178799 0.961499 0.09178799 0.9572261 0.102427 0.9657598 0.09464794 0.931697 0.02135998 0.936802 0.02326399 0.941594 0.02370101 0.936802 0.02326399 0.953059 0.02696996 0.941594 0.02370101 0.139234 0.272288 0.130491 0.306515 0.132677 0.304699 0.1346219 0.305079 0.132677 0.304699 0.130491 0.306515 0.140177 0.313891 0.144699 0.321035 0.151165 0.326527 0.151165 0.326527 0.144699 0.321035 0.149667 0.3289139 0.09653097 0.320011 0.095079 0.31826 0.08682698 0.323226 0.095079 0.31826 0.102604 0.320486 0.09716498 0.317524 0.955311 0.04398 0.942034 0.04174298 0.961499 0.09178799 0.942034 0.04174298 0.955311 0.04398 0.938655 0.02893894 0.09370696 0.232577 0.09081 0.2270159 0.09873396 0.252647 0.09370696 0.232577 0.105024 0.217691 0.09081 0.2270159 0.09653097 0.320011 0.11209 0.324481 0.102604 0.320486 0.09653097 0.320011 0.102604 0.320486 0.095079 0.31826 0.09059596 0.309377 0.08894497 0.308692 0.08919197 0.312008 0.08894497 0.308692 0.08141797 0.314465 0.08919197 0.312008 0.08995795 0.224856 0.09081 0.2270159 0.09680098 0.2206749 0.08995795 0.224856 0.08855998 0.22759 0.09081 0.2270159 0.155646 0.329127 0.158522 0.3133931 0.151165 0.326527 0.155646 0.329127 0.175383 0.271378 0.158522 0.3133931 0.130317 0.243507 0.106852 0.251254 0.127858 0.246273 0.130317 0.243507 0.127858 0.246273 0.1289129 0.2474899</float_array>
          <technique_common>
            <accessor source="#SM_Rocks_02_RocksStylized_M_0-mesh-map-0-array" count="618" stride="2">
              <param name="S" type="float"/>
              <param name="T" type="float"/>
            </accessor>
          </technique_common>
        </source>
        <source id="SM_Rocks_02_RocksStylized_M_0-mesh-colors-Attribute" name="Attribute">
          <float_array id="SM_Rocks_02_RocksStylized_M_0-mesh-colors-Attribute-array" count="2472">1 1 1 1 1 1 1 1 1 1 1 1 1 1 1 1 1 1 1 1 1 1 1 1 1 1 1 1 1 1 1 1 1 1 1 1 1 1 1 1 1 1 1 1 1 1 1 1 1 1 1 1 1 1 1 1 1 1 1 1 1 1 1 1 1 1 1 1 1 1 1 1 1 1 1 1 1 1 1 1 1 1 1 1 1 1 1 1 1 1 1 1 1 1 1 1 1 1 1 1 1 1 1 1 1 1 1 1 1 1 1 1 1 1 1 1 1 1 1 1 1 1 1 1 1 1 1 1 1 1 1 1 1 1 1 1 1 1 1 1 1 1 1 1 1 1 1 1 1 1 1 1 1 1 1 1 1 1 1 1 1 1 1 1 1 1 1 1 1 1 1 1 1 1 1 1 1 1 1 1 1 1 1 1 1 1 1 1 1 1 1 1 1 1 1 1 1 1 1 1 1 1 1 1 1 1 1 1 1 1 1 1 1 1 1 1 1 1 1 1 1 1 1 1 1 1 1 1 1 1 1 1 1 1 1 1 1 1 1 1 1 1 1 1 1 1 1 1 1 1 1 1 1 1 1 1 1 1 1 1 1 1 1 1 1 1 1 1 1 1 1 1 1 1 1 1 1 1 1 1 1 1 1 1 1 1 1 1 1 1 1 1 1 1 1 1 1 1 1 1 1 1 1 1 1 1 1 1 1 1 1 1 1 1 1 1 1 1 1 1 1 1 1 1 1 1 1 1 1 1 1 1 1 1 1 1 1 1 1 1 1 1 1 1 1 1 1 1 1 1 1 1 1 1 1 1 1 1 1 1 1 1 1 1 1 1 1 1 1 1 1 1 1 1 1 1 1 1 1 1 1 1 1 1 1 1 1 1 1 1 1 1 1 1 1 1 1 1 1 1 1 1 1 1 1 1 1 1 1 1 1 1 1 1 1 1 1 1 1 1 1 1 1 1 1 1 1 1 1 1 1 1 1 1 1 1 1 1 1 1 1 1 1 1 1 1 1 1 1 1 1 1 1 1 1 1 1 1 1 1 1 1 1 1 1 1 1 1 1 1 1 1 1 1 1 1 1 1 1 1 1 1 1 1 1 1 1 1 1 1 1 1 1 1 1 1 1 1 1 1 1 1 1 1 1 1 1 1 1 1 1 1 1 1 1 1 1 1 1 1 1 1 1 1 1 1 1 1 1 1 1 1 1 1 1 1 1 1 1 1 1 1 1 1 1 1 1 1 1 1 1 1 1 1 1 1 1 1 1 1 1 1 1 1 1 1 1 1 1 1 1 1 1 1 1 1 1 1 1 1 1 1 1 1 1 1 1 1 1 1 1 1 1 1 1 1 1 1 1 1 1 1 1 1 1 1 1 1 1 1 1 1 1 1 1 1 1 1 1 1 1 1 1 1 1 1 1 1 1 1 1 1 1 1 1 1 1 1 1 1 1 1 1 1 1 1 1 1 1 1 1 1 1 1 1 1 1 1 1 1 1 1 1 1 1 1 1 1 1 1 1 1 1 1 1 1 1 1 1 1 1 1 1 1 1 1 1 1 1 1 1 1 1 1 1 1 1 1 1 1 1 1 1 1 1 1 1 1 1 1 1 1 1 1 1 1 1 1 1 1 1 1 1 1 1 1 1 1 1 1 1 1 1 1 1 1 1 1 1 1 1 1 1 1 1 1 1 1 1 1 1 1 1 1 1 1 1 1 1 1 1 1 1 1 1 1 1 1 1 1 1 1 1 1 1 1 1 1 1 1 1 1 1 1 1 1 1 1 1 1 1 1 1 1 1 1 1 1 1 1 1 1 1 1 1 1 1 1 1 1 1 1 1 1 1 1 1 1 1 1 1 1 1 1 1 1 1 1 1 1 1 1 1 1 1 1 1 1 1 1 1 1 1 1 1 1 1 1 1 1 1 1 1 1 1 1 1 1 1 1 1 1 1 1 1 1 1 1 1 1 1 1 1 1 1 1 1 1 1 1 1 1 1 1 1 1 1 1 1 1 1 1 1 1 1 1 1 1 1 1 1 1 1 1 1 1 1 1 1 1 1 1 1 1 1 1 1 1 1 1 1 1 1 1 1 1 1 1 1 1 1 1 1 1 1 1 1 1 1 1 1 1 1 1 1 1 1 1 1 1 1 1 1 1 1 1 1 1 1 1 1 1 1 1 1 1 1 1 1 1 1 1 1 1 1 1 1 1 1 1 1 1 1 1 1 1 1 1 1 1 1 1 1 1 1 1 1 1 1 1 1 1 1 1 1 1 1 1 1 1 1 1 1 1 1 1 1 1 1 1 1 1 1 1 1 1 1 1 1 1 1 1 1 1 1 1 1 1 1 1 1 1 1 1 1 1 1 1 1 1 1 1 1 1 1 1 1 1 1 1 1 1 1 1 1 1 1 1 1 1 1 1 1 1 1 1 1 1 1 1 1 1 1 1 1 1 1 1 1 1 1 1 1 1 1 1 1 1 1 1 1 1 1 1 1 1 1 1 1 1 1 1 1 1 1 1 1 1 1 1 1 1 1 1 1 1 1 1 1 1 1 1 1 1 1 1 1 1 1 1 1 1 1 1 1 1 1 1 1 1 1 1 1 1 1 1 1 1 1 1 1 1 1 1 1 1 1 1 1 1 1 1 1 1 1 1 1 1 1 1 1 1 1 1 1 1 1 1 1 1 1 1 1 1 1 1 1 1 1 1 1 1 1 1 1 1 1 1 1 1 1 1 1 1 1 1 1 1 1 1 1 1 1 1 1 1 1 1 1 1 1 1 1 1 1 1 1 1 1 1 1 1 1 1 1 1 1 1 1 1 1 1 1 1 1 1 1 1 1 1 1 1 1 1 1 1 1 1 1 1 1 1 1 1 1 1 1 1 1 1 1 1 1 1 1 1 1 1 1 1 1 1 1 1 1 1 1 1 1 1 1 1 1 1 1 1 1 1 1 1 1 1 1 1 1 1 1 1 1 1 1 1 1 1 1 1 1 1 1 1 1 1 1 1 1 1 1 1 1 1 1 1 1 1 1 1 1 1 1 1 1 1 1 1 1 1 1 1 1 1 1 1 1 1 1 1 1 1 1 1 1 1 1 1 1 1 1 1 1 1 1 1 1 1 1 1 1 1 1 1 1 1 1 1 1 1 1 1 1 1 1 1 1 1 1 1 1 1 1 1 1 1 1 1 1 1 1 1 1 1 1 1 1 1 1 1 1 1 1 1 1 1 1 1 1 1 1 1 1 1 1 1 1 1 1 1 1 1 1 1 1 1 1 1 1 1 1 1 1 1 1 1 1 1 1 1 1 1 1 1 1 1 1 1 1 1 1 1 1 1 1 1 1 1 1 1 1 1 1 1 1 1 1 1 1 1 1 1 1 1 1 1 1 1 1 1 1 1 1 1 1 1 1 1 1 1 1 1 1 1 1 1 1 1 1 1 1 1 1 1 1 1 1 1 1 1 1 1 1 1 1 1 1 1 1 1 1 1 1 1 1 1 1 1 1 1 1 1 1 1 1 1 1 1 1 1 1 1 1 1 1 1 1 1 1 1 1 1 1 1 1 1 1 1 1 1 1 1 1 1 1 1 1 1 1 1 1 1 1 1 1 1 1 1 1 1 1 1 1 1 1 1 1 1 1 1 1 1 1 1 1 1 1 1 1 1 1 1 1 1 1 1 1 1 1 1 1 1 1 1 1 1 1 1 1 1 1 1 1 1 1 1 1 1 1 1 1 1 1 1 1 1 1 1 1 1 1 1 1 1 1 1 1 1 1 1 1 1 1 1 1 1 1 1 1 1 1 1 1 1 1 1 1 1 1 1 1 1 1 1 1 1 1 1 1 1 1 1 1 1 1 1 1 1 1 1 1 1 1 1 1 1 1 1 1 1 1 1 1 1 1 1 1 1 1 1 1 1 1 1 1 1 1 1 1 1 1 1 1 1 1 1 1 1 1 1 1 1 1 1 1 1 1 1 1 1 1 1 1 1 1 1 1 1 1 1 1 1 1 1 1 1 1 1 1 1 1 1 1 1 1 1 1 1 1 1 1 1 1 1 1 1 1 1 1 1 1 1 1 1 1 1 1 1 1 1 1 1 1 1 1 1 1 1 1 1 1 1 1 1 1 1 1 1 1 1 1 1 1 1 1 1 1 1 1 1 1 1 1 1 1 1 1 1 1 1 1 1 1 1 1 1 1 1 1 1 1 1 1 1 1 1 1 1 1 1 1 1 1 1 1 1 1 1 1 1 1 1 1 1 1 1 1 1 1 1 1 1 1 1 1 1 1 1 1 1 1 1 1 1 1 1 1 1 1 1 1 1 1 1 1 1 1 1 1 1 1 1 1 1 1 1 1 1 1 1 1 1 1 1 1 1 1 1 1 1 1 1 1 1 1 1 1 1 1 1 1 1 1 1 1 1 1 1 1 1 1 1 1 1 1 1 1 1 1 1 1 1 1 1 1 1 1 1 1 1 1 1 1 1 1 1 1 1 1 1 1 1 1 1 1 1 1 1 1 1 1 1 1 1 1 1 1 1 1 1 1 1 1 1 1 1 1 1 1 1 1 1 1 1 1 1 1 1 1 1 1 1 1 1 1 1 1 1 1 1 1 1 1 1 1 1 1 1 1 1 1 1 1 1 1 1 1 1 1 1 1 1 1 1 1 1 1 1 1 1 1 1 1 1 1 1 1 1 1 1 1 1 1 1 1 1 1 1 1 1 1 1 1 1 1 1 1 1 1 1 1 1 1 1 1 1 1 1 1 1 1 1 1 1 1 1 1 1 1 1 1 1 1 1 1 1 1 1 1 1 1 1 1 1 1 1 1 1 1 1 1 1 1 1 1 1 1 1 1 1 1 1 1 1 1 1 1 1 1 1 1 1 1 1 1 1 1 1 1 1 1 1 1 1 1 1 1 1 1 1 1 1 1 1 1 1 1 1 1 1 1 1 1 1 1 1 1 1 1 1 1 1 1 1 1 1 1 1 1 1 1 1 1 1 1 1 1 1 1 1 1 1 1 1 1 1 1 1 1 1 1 1 1 1 1 1 1 1 1 1 1 1 1 1 1 1 1 1 1 1 1 1 1 1 1 1 1 1 1 1 1 1 1 1 1 1 1 1 1 1 1 1 1 1 1 1 1 1 1 1 1 1 1 1 1 1 1 1 1 1 1 1 1 1 1 1 1 1 1 1 1 1 1 1 1 1 1 1 1 1 1 1 1 1 1 1 1 1 1 1 1 1 1 1 1 1 1 1 1 1 1 1 1 1 1 1 1 1 1 1 1 1 1 1 1 1 1 1 1 1 1 1 1 1 1 1 1 1 1 1 1 1 1 1 1 1 1 1 1 1 1 1 1 1 1 1 1 1 1 1 1 1 1 1 1 1 1 1 1 1 1 1 1 1 1 1 1 1 1 1 1 1 1 1 1 1 1 1 1 1 1 1 1 1 1 1 1 1 1 1 1 1 1 1 1 1 1 1 1 1 1 1 1 1 1 1 1 1 1 1 1 1 1 1 1 1 1 1 1 1 1 1 1 1 1 1 1 1 1 1 1 1 1 1 1 1</float_array>
          <technique_common>
            <accessor source="#SM_Rocks_02_RocksStylized_M_0-mesh-colors-Attribute-array" count="618" stride="4">
              <param name="R" type="float"/>
              <param name="G" type="float"/>
              <param name="B" type="float"/>
              <param name="A" type="float"/>
            </accessor>
          </technique_common>
        </source>
        <vertices id="SM_Rocks_02_RocksStylized_M_0-mesh-vertices">
          <input semantic="POSITION" source="#SM_Rocks_02_RocksStylized_M_0-mesh-positions"/>
        </vertices>
        <triangles material="RocksStylized_M-material" count="206">
          <input semantic="VERTEX" source="#SM_Rocks_02_RocksStylized_M_0-mesh-vertices" offset="0"/>
          <input semantic="NORMAL" source="#SM_Rocks_02_RocksStylized_M_0-mesh-normals" offset="1"/>
          <input semantic="TEXCOORD" source="#SM_Rocks_02_RocksStylized_M_0-mesh-map-0" offset="2" set="0"/>
          <input semantic="COLOR" source="#SM_Rocks_02_RocksStylized_M_0-mesh-colors-Attribute" offset="3" set="0"/>
          <p>0 0 0 0 1 0 1 1 2 0 2 2 3 1 3 3 4 2 4 4 5 3 5 5 6 4 6 6 7 5 7 7 8 6 8 8 9 7 9 9 10 8 10 10 11 9 11 11 12 10 12 12 13 11 13 13 14 12 14 14 15 13 15 15 16 14 16 16 17 15 17 17 14 12 18 18 18 16 19 19 12 10 20 20 19 17 21 21 20 18 22 22 21 19 23 23 14 12 24 24 22 20 25 25 18 16 26 26 23 21 27 27 24 22 28 28 25 23 29 29 26 24 30 30 15 13 31 31 17 15 32 32 5 3 33 33 4 2 34 34 27 25 35 35 28 26 36 36 29 27 37 37 30 28 38 38 31 29 39 39 32 30 40 40 33 31 41 41 34 32 42 42 35 33 43 43 36 34 44 44 37 35 45 45 12 10 46 46 18 16 47 47 38 36 48 48 39 37 49 49 40 38 50 50 7 5 51 51 6 4 52 52 41 39 53 53 42 40 54 54 43 41 55 55 44 42 56 56 45 43 57 57 46 44 58 58 11 9 59 59 34 32 60 60 47 45 61 61 35 33 62 62 48 46 63 63 49 47 64 64 50 48 65 65 32 30 66 66 51 49 67 67 52 50 68 68 32 30 69 69 53 51 70 70 33 31 71 71 21 19 72 72 20 18 73 73 54 52 74 74 55 53 75 75 56 54 76 76 57 55 77 77 58 56 78 78 19 17 79 79 59 57 80 80 60 58 81 81 56 54 82 82 55 53 83 83 59 57 84 84 61 59 85 85 58 56 86 86 13 11 87 87 40 38 88 88 14 12 89 89 50 48 90 90 49 47 91 91 62 60 92 92 63 61 93 93 64 62 94 94 65 63 95 95 66 64 96 96 26 24 97 97 67 65 98 98 68 66 99 99 69 67 100 100 70 68 101 101 44 42 102 102 39 37 103 103 38 36 104 104 41 39 105 105 6 4 106 106 71 69 107 107 28 26 108 108 31 29 109 109 72 70 110 110 70 68 111 111 69 67 112 112 73 71 113 113 14 12 114 114 40 38 115 115 74 72 116 116 60 58 117 117 75 73 118 118 56 54 119 119 76 74 120 120 77 75 121 121 34 32 122 122 66 64 123 123 78 76 124 124 26 24 125 125 79 77 126 126 3 1 127 127 5 3 128 128 80 78 129 129 81 79 130 130 79 77 131 131 6 4 132 132 8 6 133 133 82 80 134 134 77 75 135 135 47 45 136 136 34 32 137 137 83 81 138 138 84 82 139 139 60 58 140 140 85 83 141 141 10 8 142 142 9 7 143 143 31 29 144 144 33 31 145 145 72 70 146 146 86 84 147 147 66 64 148 148 67 65 149 149 87 85 150 150 41 39 151 151 71 69 152 152 88 86 153 153 89 87 154 154 40 38 155 155 73 71 156 156 69 67 157 157 90 88 158 158 91 89 159 159 66 64 160 160 86 84 161 161 56 54 162 162 39 37 163 163 57 55 164 164 45 43 165 165 11 9 166 166 10 8 167 167 48 46 168 168 51 49 169 169 49 47 170 170 92 90 171 171 8 6 172 172 93 91 173 173 74 72 174 174 40 38 175 175 94 92 176 176 95 93 177 177 74 72 178 178 96 94 179 179 46 44 180 180 45 43 181 181 65 63 182 182 97 95 183 183 65 63 184 184 64 62 185 185 95 93 186 186 14 12 187 187 74 72 188 188 14 12 189 189 95 93 190 190 22 20 191 191 91 89 192 192 86 84 193 193 98 96 194 194 98 96 195 195 86 84 196 196 67 65 197 197 99 97 198 198 100 98 199 199 101 99 200 200 101 99 201 201 87 85 202 202 102 100 203 203 18 16 204 204 22 20 205 205 24 22 206 206 103 101 207 207 104 102 208 208 105 103 209 209 57 55 210 210 39 37 211 211 43 41 212 212 44 42 213 213 43 41 214 214 39 37 215 215 35 33 216 216 12 10 217 217 36 34 218 218 12 10 219 219 106 104 220 220 41 39 221 221 40 38 222 222 75 73 223 223 94 92 224 224 96 94 225 225 61 59 226 226 107 105 227 227 28 26 228 228 108 106 229 229 29 27 230 230 80 78 231 231 29 27 232 232 109 107 233 233 88 86 234 234 40 38 235 235 13 11 236 236 88 86 237 237 41 39 238 238 87 85 239 239 110 108 240 240 111 109 241 241 98 96 242 242 112 110 243 243 113 111 244 244 25 23 245 245 41 39 246 246 114 112 247 247 12 10 248 248 41 39 249 249 88 86 250 250 114 112 251 251 5 3 252 252 115 113 253 253 31 29 254 254 28 26 255 255 30 28 256 256 31 29 257 257 40 38 258 258 39 37 259 259 56 54 260 260 75 73 261 261 40 38 262 262 56 54 263 263 34 32 264 264 36 34 265 265 15 13 266 266 16 14 267 267 116 114 268 268 37 35 269 269 117 115 270 270 62 60 271 271 49 47 272 272 11 9 273 273 62 60 274 274 117 115 275 275 87 85 276 276 101 99 277 277 118 116 278 278 89 87 279 279 38 36 280 280 40 38 281 281 17 15 282 282 119 117 283 283 120 118 284 284 16 14 285 285 37 35 286 286 121 119 287 287 9 7 288 288 11 9 289 289 81 79 290 290 11 9 291 291 117 115 292 292 3 1 293 293 88 86 294 294 87 85 295 295 89 87 296 296 89 87 297 297 87 85 298 298 38 36 299 299 107 105 300 300 95 93 301 301 96 94 302 302 103 101 303 303 95 93 304 304 104 102 305 305 36 34 306 306 12 10 307 307 37 35 308 308 36 34 309 309 37 35 310 310 116 114 311 311 62 60 312 312 11 9 313 313 46 44 314 314 97 95 315 315 46 44 316 316 65 63 317 317 96 94 318 318 122 120 319 319 75 73 320 320 122 120 321 321 96 94 322 322 74 72 323 323 23 21 324 324 18 16 325 325 24 22 326 326 119 117 327 327 18 16 328 328 23 21 329 329 82 80 330 330 123 121 331 331 6 4 332 332 71 69 333 333 6 4 334 334 123 121 335 335 96 94 336 336 124 122 337 337 61 59 338 338 61 59 339 339 124 122 340 340 58 56 341 341 25 23 342 342 111 109 343 343 110 108 344 344 111 109 345 345 25 23 346 346 24 22 347 347 123 121 348 348 125 123 349 349 102 100 350 350 126 124 351 351 97 95 352 352 64 62 353 353 127 125 354 354 57 55 355 355 128 126 356 356 127 125 357 357 129 127 358 358 57 55 359 359 13 11 360 360 114 112 361 361 88 86 362 362 12 10 363 363 114 112 364 364 13 11 365 365 15 13 366 366 26 24 367 367 34 32 368 368 34 32 369 369 26 24 370 370 78 76 371 371 24 22 372 372 103 101 373 373 105 103 374 374 24 22 375 375 130 128 376 376 111 109 377 377 46 44 378 378 97 95 379 379 62 60 380 380 62 60 381 381 97 95 382 382 50 48 383 383 36 34 384 384 116 114 385 385 15 13 386 386 15 13 387 387 116 114 388 388 16 14 389 389 68 129 390 390 19 17 391 391 131 130 392 392 130 128 393 393 24 22 394 394 105 103 395 395 65 63 396 396 45 43 397 397 132 131 398 398 57 55 399 399 43 41 400 400 128 126 401 401 48 46 402 402 50 48 403 403 126 124 404 404 50 48 405 405 97 95 406 406 126 124 407 407 120 118 408 408 113 111 409 409 112 110 410 410 119 117 411 411 23 21 412 412 120 118 413 413 85 83 414 414 9 7 415 415 80 78 416 416 9 7 417 417 81 79 418 418 80 78 419 419 27 25 420 420 49 47 421 421 51 49 422 422 27 25 423 423 4 2 424 424 49 47 425 425 65 63 426 426 132 131 427 427 133 132 428 428 65 63 429 429 133 132 430 430 63 61 431 431 131 130 432 432 19 17 433 433 21 19 434 434 109 107 435 435 29 27 436 436 108 106 437 437 27 25 438 438 51 49 439 439 32 30 440 440 115 113 441 441 32 30 442 442 31 29 443 443 134 133 444 444 80 78 445 445 109 107 446 446 85 83 447 447 80 78 448 448 134 133 449 449 113 111 450 450 120 118 451 451 23 21 452 452 25 23 453 453 113 111 454 454 23 21 455 455 27 25 456 456 32 30 457 457 115 113 458 458 27 25 459 459 115 113 460 460 5 3 461 461 124 122 462 462 135 134 463 463 58 56 464 464 20 18 465 465 135 134 466 466 54 52 467 467 17 15 468 468 120 118 469 469 136 135 470 470 67 65 471 471 110 108 472 472 98 96 473 473 30 28 474 474 79 77 475 475 5 3 476 476 30 28 477 477 5 3 478 478 31 29 479 479 59 57 480 480 19 17 481 481 105 103 482 482 68 129 483 483 105 103 484 484 19 17 485 485 17 15 486 486 16 14 487 487 119 117 488 488 119 117 489 489 16 14 490 490 121 119 491 491 57 55 492 492 129 127 493 493 55 53 494 494 84 82 495 495 83 81 496 496 129 127 497 497 76 74 498 498 34 32 499 499 78 76 500 500 32 30 501 501 52 50 502 502 53 51 503 503 110 108 504 504 112 110 505 505 25 23 506 506 136 135 507 507 110 108 508 508 67 65 509 509 19 17 510 510 58 56 511 511 20 18 512 512 58 56 513 513 135 134 514 514 20 18 515 515 137 136 516 516 48 46 517 517 126 124 518 518 138 137 519 519 51 49 520 520 48 46 521 521 29 27 522 522 79 77 523 523 30 28 524 524 80 78 525 525 79 77 526 526 29 27 527 527 138 137 528 528 48 46 529 529 137 136 530 530 8 6 531 531 92 90 532 532 82 80 533 533 60 58 534 534 55 53 535 535 83 81 536 536 55 53 537 537 129 127 538 538 83 81 539 539 103 101 540 540 22 20 541 541 95 93 542 542 24 22 543 543 22 20 544 544 103 101 545 545 81 79 546 546 11 9 547 547 3 1 548 548 3 1 549 549 79 77 550 550 81 79 551 551 138 137 552 552 137 136 553 553 139 138 554 554 137 136 555 555 126 124 556 556 139 138 557 557 37 35 558 558 18 16 559 559 121 119 560 560 119 117 561 561 121 119 562 562 18 16 563 563 120 118 564 564 112 110 565 565 136 135 566 566 136 135 567 567 112 110 568 568 110 108 569 569 59 57 570 570 107 105 571 571 61 59 572 572 107 105 573 573 104 102 574 574 95 93 575 575 117 115 576 576 4 2 577 577 3 1 578 578 4 2 579 579 117 115 580 580 49 47 581 581 71 69 582 582 102 100 583 583 87 85 584 584 71 69 585 585 123 121 586 586 102 100 587 587 59 57 588 588 105 103 589 589 104 102 590 590 59 57 591 591 104 102 592 592 107 105 593 593 74 72 594 594 94 92 595 595 122 120 596 596 94 92 597 597 75 73 598 598 122 120 599 599 99 97 600 600 102 100 601 601 125 123 602 602 99 97 603 603 101 99 604 604 102 100 605 605 67 65 606 606 17 15 607 607 136 135 608 608 67 65 609 609 26 24 610 610 17 15 611 611 7 5 612 612 41 39 613 613 106 104 614 614 7 5 615 615 106 104 616 616 12 10 617 617</p>
        </triangles>
      </mesh>
    </geometry>
  </library_geometries>
  <library_visual_scenes>
    <visual_scene id="Scene" name="Scene">
      <node id="Rocks_Stylized" name="Rocks_Stylized" type="NODE">
        <matrix sid="transform">1 0 0 0 0 1 0 0 0 0 1 0 0 0 0 1</matrix>
        <node id="SM_Rocks_01" name="SM_Rocks_01" type="NODE">
          <matrix sid="transform">1 0 0 0 0 1 0 0 0 0 1 0 0 0 0 1</matrix>
        </node>
        <node id="SM_Rocks_02" name="SM_Rocks_02" type="NODE">
          <matrix sid="transform">1 0 0 0 0 1 0 0 0 0 1 0 0 0 0 1</matrix>
          <node id="SM_Rocks_02_RocksStylized_M_0" name="SM_Rocks_02_RocksStylized_M_0" type="NODE">
            <matrix sid="transform">1 0 0 0 0 1 0 0 0 0 1 0 0 0 0 1</matrix>
            <instance_geometry url="#SM_Rocks_02_RocksStylized_M_0-mesh" name="SM_Rocks_02_RocksStylized_M_0">
              <bind_material>
                <technique_common>
                  <instance_material symbol="RocksStylized_M-material" target="#RocksStylized_M-material">
                    <bind_vertex_input semantic="SM_Rocks_02_RocksStylized_M_0-mesh-map" input_semantic="TEXCOORD" input_set="0"/>
                  </instance_material>
                </technique_common>
              </bind_material>
            </instance_geometry>
          </node>
        </node>
        <node id="SM_Rocks_03" name="SM_Rocks_03" type="NODE">
          <matrix sid="transform">1 0 0 0 0 1 0 0 0 0 1 0 0 0 0 1</matrix>
        </node>
        <node id="SM_Rocks_04" name="SM_Rocks_04" type="NODE">
          <matrix sid="transform">1 0 0 0 0 1 0 0 0 0 1 0 0 0 0 1</matrix>
        </node>
        <node id="SM_Rocks_05" name="SM_Rocks_05" type="NODE">
          <matrix sid="transform">1 0 0 0 0 1 0 0 0 0 1 0 0 0 0 1</matrix>
        </node>
        <node id="SM_Rocks_06" name="SM_Rocks_06" type="NODE">
          <matrix sid="transform">1 0 0 0 0 1 0 0 0 0 1 0 0 0 0 1</matrix>
        </node>
        <node id="SM_Rocks_07" name="SM_Rocks_07" type="NODE">
          <matrix sid="transform">1 0 0 0 0 1 0 0 0 0 1 0 0 0 0 1</matrix>
        </node>
        <node id="SM_Rocks_08" name="SM_Rocks_08" type="NODE">
          <matrix sid="transform">1 0 0 0 0 1 0 0 0 0 1 0 0 0 0 1</matrix>
        </node>
        <node id="SM_Rocks_09" name="SM_Rocks_09" type="NODE">
          <matrix sid="transform">1 0 0 0 0 1 0 0 0 0 1 0 0 0 0 1</matrix>
        </node>
        <node id="SM_Rocks_10" name="SM_Rocks_10" type="NODE">
          <matrix sid="transform">1 0 0 0 0 1 0 0 0 0 1 0 0 0 0 1</matrix>
        </node>
        <node id="SM_Rocks_11" name="SM_Rocks_11" type="NODE">
          <matrix sid="transform">1 0 0 0 0 1 0 0 0 0 1 0 0 0 0 1</matrix>
        </node>
      </node>
    </visual_scene>
  </library_visual_scenes>
  <scene>
    <instance_visual_scene url="#Scene"/>
  </scene>
</COLLADA>