<?xml version="1.0" encoding="utf-8"?>
<COLLADA xmlns="http://www.collada.org/2005/11/COLLADASchema" version="1.4.1" xmlns:xsi="http://www.w3.org/2001/XMLSchema-instance">
  <asset>
    <contributor>
      <author>Blender User</author>
      <authoring_tool>Blender 4.5.5 LTS commit date:2025-11-17, commit time:16:03, hash:836beaaf597a</authoring_tool>
    </contributor>
    <created>2025-12-19T02:25:11</created>
    <modified>2025-12-19T02:25:11</modified>
    <unit name="meter" meter="1"/>
    <up_axis>Z_UP</up_axis>
  </asset>
  <library_effects>
    <effect id="Moon_Shield1-effect">
      <profile_COMMON>
        <newparam sid="Moon_Shield1_baseColor_png-surface">
          <surface type="2D">
            <init_from>Moon_Shield1_baseColor_png</init_from>
          </surface>
        </newparam>
        <newparam sid="Moon_Shield1_baseColor_png-sampler">
          <sampler2D>
            <source>Moon_Shield1_baseColor_png-surface</source>
          </sampler2D>
        </newparam>
        <technique sid="common">
          <lambert>
            <emission>
              <color sid="emission">0 0 0 1</color>
            </emission>
            <diffuse>
              <texture texture="Moon_Shield1_baseColor_png-sampler" texcoord="UVMap"/>
            </diffuse>
            <index_of_refraction>
              <float sid="ior">1.5</float>
            </index_of_refraction>
          </lambert>
        </technique>
      </profile_COMMON>
    </effect>
  </library_effects>
  <library_images>
    <image id="Moon_Shield1_baseColor_png" name="Moon_Shield1_baseColor_png">
      <init_from>Moon_Shield1_baseColor.png</init_from>
    </image>
  </library_images>
  <library_materials>
    <material id="Moon_Shield1-material" name="Moon_Shield1">
      <instance_effect url="#Moon_Shield1-effect"/>
    </material>
  </library_materials>
  <library_geometries>
    <geometry id="Moon_shield_Moon_Shield1_0-mesh" name="Moon_shield_Moon_Shield1_0">
      <mesh>
        <source id="Moon_shield_Moon_Shield1_0-mesh-positions">
          <float_array id="Moon_shield_Moon_Shield1_0-mesh-positions-array" count="1347">0.1005904 -0.4701296 -0.1003231 0.1298373 -0.4822441 -0.1003231 0.1005904 -0.5114911 -0.1085503 0.1298373 -0.5407378 -0.1003231 0.1005904 -0.5528524 -0.1003231 0.1419517 -0.5114911 -0.1003231 0.1298373 -0.4822441 0.09938734 0.1005904 -0.4701296 0.09938734 0.1005904 -0.5114911 0.1076146 0.1005904 -0.5528524 0.09938734 0.1298373 -0.5407378 0.09938734 0.1419517 -0.5114911 0.09938734 0.1005904 -0.4350652 -0.07689368 0.1546317 -0.4574497 -0.07689368 0.1546317 -0.5655322 -0.07689368 0.1005904 -0.5879169 -0.07689368 0.1770163 -0.5114911 -0.07689368 0.1005904 -0.4116359 -0.04182922 0.1711987 -0.4408826 -0.04182922 0.1711987 -0.5820992 -0.04182922 0.1005904 -0.6113463 -0.04182922 0.2004456 -0.5114911 -0.04182922 0.1005904 -0.4034084 -4.67867e-4 0.1770163 -0.4350652 -4.67867e-4 0.1770163 -0.5879169 -4.67867e-4 0.1005904 -0.6195734 -4.67867e-4 0.208673 -0.5114911 -4.67867e-4 0.1005904 -0.4116359 0.04089349 0.1711987 -0.4408826 0.04089349 0.1711987 -0.5820992 0.04089349 0.1005904 -0.6113463 0.04089349 0.2004456 -0.5114911 0.04089349 0.1005904 -0.4350652 0.07595801 0.1546317 -0.4574497 0.07595801 0.1546317 -0.5655322 0.07595801 0.1005904 -0.5879169 0.07595801 0.1770163 -0.5114911 0.07595801 -0.1031453 -0.46297 0.09866756 -0.1031453 -0.5969972 0.09706562 -0.1393744 -0.5969972 0.09706562 -0.1393744 -0.46297 0.09866756 -0.1393744 -0.5973781 0.1289389 -0.1031453 -0.5973781 0.1289389 -0.1031453 -0.463351 0.1305409 -0.1393744 -0.463351 0.1305409 -0.1393744 -0.46297 0.09866756 -0.1393744 -0.5969972 0.09706562 -0.1393744 -0.5973781 0.1289389 -0.1393744 -0.463351 0.1305409 -0.2024287 -0.4645978 -0.0934019 -0.1611005 -0.4645978 -0.0934019 -0.1643418 -0.4645978 -0.0538246 -0.2056701 -0.4645978 -0.0538246 -0.1474253 -0.4645978 0.146596 -0.106097 -0.4645978 0.146596 -0.106097 -0.4113 0.146596 -0.1474253 -0.4113 0.146596 -0.2056701 -0.4113 -0.0538246 -0.1643418 -0.4113 -0.0538246 -0.1611005 -0.4113 -0.0934019 -0.2024287 -0.4113 -0.0934019 -0.1474253 -0.4113 -0.2112979 -0.106097 -0.4113 -0.2112979 -0.106097 -0.4645978 -0.2112979 -0.1474253 -0.4645978 -0.2112979 -0.1611005 -0.4645978 -0.0934019 -0.1611005 -0.4113 -0.0934019 -0.1643418 -0.4113 -0.0538246 -0.1643418 -0.4645978 -0.0538246 -0.2024287 -0.4113 -0.0934019 -0.2024287 -0.4645978 -0.0934019 -0.2056701 -0.4645978 -0.0538246 -0.2056701 -0.4113 -0.0538246 -0.1474253 -0.4645978 -0.2112979 -0.106097 -0.4645978 -0.2112979 -0.1059716 -0.4645978 -0.1525519 -0.1472999 -0.4645978 -0.1525519 -0.106097 -0.4645978 -0.2112979 -0.106097 -0.4113 -0.2112979 -0.1059716 -0.4113 -0.1525519 -0.1059716 -0.4645978 -0.1525519 -0.1472999 -0.4113 -0.1525519 -0.1059716 -0.4113 -0.1525519 -0.106097 -0.4113 -0.2112979 -0.1474253 -0.4113 -0.2112979 -0.1474253 -0.4113 -0.2112979 -0.1474253 -0.4645978 -0.2112979 -0.1472999 -0.4645978 -0.1525519 -0.1472999 -0.4113 -0.1525519 -0.1411564 -0.4113 0.0664277 -0.09982812 -0.4113 0.0664277 -0.1633725 -0.4113 2.22176e-5 -0.2047008 -0.4113 2.224e-5 -0.1633725 -0.4645978 2.22474e-5 -0.1633725 -0.4113 2.22176e-5 -0.09982812 -0.4113 0.0664277 -0.09982812 -0.4645978 0.0664277 -0.2047008 -0.4645978 2.22474e-5 -0.1633725 -0.4645978 2.22474e-5 -0.09982812 -0.4645978 0.0664277 -0.1411564 -0.4645978 0.0664277 -0.2047008 -0.4113 2.224e-5 -0.2047008 -0.4645978 2.22474e-5 -0.1411564 -0.4645978 0.0664277 -0.1411564 -0.4113 0.0664277 -0.1474253 -0.4113 0.146596 -0.106097 -0.4113 0.146596 -0.106097 -0.4645978 0.146596 -0.1474253 -0.4645978 0.146596 -0.1474253 -0.4645978 0.146596 -0.1474253 -0.4113 0.146596 -0.1045309 -0.4629699 -0.1950396 -0.1045309 -0.5969971 -0.1966415 -0.1407601 -0.5969971 -0.1966415 -0.1407601 -0.4629699 -0.1950396 -0.1407601 -0.597378 -0.1647682 -0.1045309 -0.597378 -0.1647682 -0.1045309 -0.4633509 -0.1631663 -0.1407601 -0.4633509 -0.1631663 -0.1407601 -0.4629699 -0.1950396 -0.1407601 -0.5969971 -0.1966415 -0.1407601 -0.597378 -0.1647682 -0.1407601 -0.4633509 -0.1631663 0.1470431 -0.2381977 0.7122336 0.1470136 0.113308 0.8168219 -0.1395528 0.1125874 0.8172147 -0.1395237 -0.2389182 0.7126383 0.1469777 0.3303211 0.8171725 -0.1395897 0.3296002 0.8175652 0.1468636 0.3323258 -0.8387748 0.1468999 0.1153126 -0.8391254 -0.1396675 0.1145921 -0.838733 -0.1397033 0.3316053 -0.8383824 0.146947 -0.2364985 -0.735286 -0.1396197 -0.237219 -0.7348813 0.1469923 -0.5233486 -0.5225185 -0.1395741 -0.5240692 -0.5220913 0.1470291 -0.6777853 -0.1766492 -0.1395378 -0.6785055 -0.1762561 0.1470519 -0.6781839 0.1527394 -0.1395148 -0.6789046 0.1531321 0.1470568 -0.524484 0.4988798 -0.1395099 -0.5252051 0.4993069 0.1070239 -0.1114113 0.5718138 0.1070008 0.1351035 0.674274 0.1070097 0.1220873 0.7568382 0.1070374 -0.2082754 0.65854 -0.1125658 0.1343897 0.6746608 -0.1125428 -0.1121239 0.5722021 -0.112529 -0.2089881 0.6589404 -0.1125564 0.121376 0.7572265 0.1069788 0.3148823 0.7146484 0.1069807 0.2934322 0.7571145 0.1469638 0.4031563 0.6729753 -0.1396034 0.4024355 0.6734032 -0.1395897 0.3296002 0.8175652 0.1469777 0.3303211 0.8171725 -0.1125876 0.3141707 0.7150612 -0.1125862 0.2927273 0.7575038 0.1068846 0.3165256 -0.7364782 0.1069058 0.1367567 -0.6965171 0.1069045 0.12393 -0.7791076 0.1068752 0.2952705 -0.7788301 -0.1126608 0.1360496 -0.696133 -0.1126821 0.3158184 -0.736071 -0.1126913 0.2945564 -0.7784467 -0.1126623 0.1232203 -0.7787225 -0.1396894 0.403956 -0.6941856 0.1468777 0.4046767 -0.6946128 0.1468636 0.3323258 -0.8387748 -0.1397033 0.3316053 -0.8383824 0.1069443 -0.1099992 -0.5946572 0.1069481 -0.2066902 -0.6815233 -0.1126219 -0.1107115 -0.5942708 -0.1126181 -0.2074019 -0.6811253 0.1069801 -0.3037629 -0.4013606 0.1069907 -0.4732329 -0.4835929 -0.1125856 -0.3044767 -0.4009749 -0.1125751 -0.4739463 -0.4831722 0.1070107 -0.4088066 -0.1486285 0.107025 -0.6178032 -0.1646386 -0.1125553 -0.4095206 -0.1482425 -0.1125413 -0.6185165 -0.1642516 0.1070294 -0.4091381 0.125064 0.1070461 -0.6181729 0.1408796 -0.1125366 -0.4098522 0.1254508 -0.1125201 -0.618887 0.1412675 0.1070339 -0.3047065 0.3780496 0.1070507 -0.4742863 0.4600805 -0.1125327 -0.3054199 0.3784381 -0.1125156 -0.4749995 0.4605041 0.1469638 0.4031563 0.6729753 0.1469957 0.1533328 0.6168703 -0.1395716 0.152612 0.6172628 -0.1396034 0.4024355 0.6734032 0.147018 -0.07735812 0.5209875 -0.1395494 -0.0780791 0.52138 0.1470277 -0.253796 0.344122 -0.1395394 -0.254517 0.3445144 0.1470236 -0.3491201 0.1131992 -0.1395428 -0.349841 0.1135911 0.1470066 -0.3488178 -0.1366242 -0.1395598 -0.3495383 -0.1362321 0.1469783 -0.2529351 -0.3673152 -0.1395878 -0.2536558 -0.3669227 0.1469447 -0.07606923 -0.5437536 -0.1396219 -0.07679009 -0.5433607 0.1469089 0.1548534 -0.6390777 -0.1396582 0.1541324 -0.6386848 0.1468777 0.4046767 -0.6946128 -0.1396894 0.403956 -0.6941856 0.147018 -0.07735812 0.5209875 0.1469957 0.1533328 0.6168703 0.1469982 0.1442208 0.6455711 0.1470209 -0.09438264 0.5463997 0.1470136 0.113308 0.8168219 0.1470431 -0.2381977 0.7122336 0.1470402 -0.2232347 0.6853856 0.1470116 0.1177002 0.7868291 0.1469638 0.4031563 0.6729753 0.1469713 0.3590222 0.6938109 0.1469777 0.3303211 0.8171725 0.1469792 0.3118797 0.7871426 0.1468777 0.4046767 -0.6946128 0.1469089 0.1548534 -0.6390777 0.1469073 0.1458076 -0.6677995 0.1468812 0.3606038 -0.7155477 0.1468999 0.1153126 -0.8391254 0.1468636 0.3323258 -0.8387748 0.1468693 0.3138006 -0.8088046 0.1469022 0.119624 -0.8091182 0.1469447 -0.07606923 -0.5437536 0.1469445 -0.09303212 -0.569207 0.146947 -0.2364985 -0.735286 0.1469476 -0.2215923 -0.7084063 0.1469783 -0.2529351 -0.3673152 0.1469792 -0.2783471 -0.3843396 0.1469923 -0.5233486 -0.5225185 0.1469914 -0.498289 -0.5030574 0.1470066 -0.3488178 -0.1366242 0.1470087 -0.3788104 -0.1426278 0.1470291 -0.6777853 -0.1766492 0.1470271 -0.6477926 -0.1706455 0.1470236 -0.3491201 0.1131992 0.1470265 -0.3791274 0.1191305 0.1470519 -0.6781839 0.1527394 0.147049 -0.6481766 0.1468083 0.1470277 -0.253796 0.344122 0.1470308 -0.2792496 0.3610848 0.1470568 -0.524484 0.4988798 0.1470537 -0.4993833 0.4794791 -0.1395716 0.152612 0.6172628 -0.1395494 -0.0780791 0.52138 -0.1395464 -0.09510338 0.546792 -0.139569 0.1434981 0.6459628 -0.1395237 -0.2389182 0.7126383 -0.1395528 0.1125874 0.8172147 -0.1395549 0.1169792 0.7872217 -0.1395266 -0.2239553 0.6857905 -0.1396034 0.4024355 0.6734032 -0.1395958 0.3583 0.694233 -0.1395897 0.3296002 0.8175652 -0.1395882 0.3111606 0.7875352 -0.1396582 0.1541324 -0.6386848 -0.1396894 0.403956 -0.6941856 -0.1396859 0.3598846 -0.7151262 -0.1396597 0.1450886 -0.667407 -0.1397033 0.3316053 -0.8383824 -0.1396976 0.313078 -0.8084122 -0.1396675 0.1145921 -0.838733 -0.1396651 0.1189036 -0.8087258 -0.1396219 -0.07679009 -0.5433607 -0.1396222 -0.09375309 -0.5688143 -0.1396197 -0.237219 -0.7348813 -0.1396191 -0.2223126 -0.7080019 -0.1395878 -0.2536558 -0.3669227 -0.139587 -0.2790681 -0.3839471 -0.1395741 -0.5240692 -0.5220913 -0.1395748 -0.4990099 -0.5026299 -0.1395598 -0.3495383 -0.1362321 -0.1395578 -0.3795313 -0.1422358 -0.1395378 -0.6785055 -0.1762561 -0.1395398 -0.6485126 -0.1702524 -0.1395428 -0.349841 0.1135911 -0.1395399 -0.3798484 0.1195222 -0.1395148 -0.6789046 0.1531321 -0.1395177 -0.6488975 0.147201 -0.1395394 -0.254517 0.3445144 -0.1395363 -0.2799703 0.3614773 -0.1395099 -0.5252051 0.4993069 -0.139513 -0.5001041 0.4799065 0.1470209 -0.09438264 0.5463997 0.1469982 0.1442208 0.6455711 0.1070008 0.1351035 0.674274 0.1070239 -0.1114113 0.5718138 0.1470116 0.1177002 0.7868291 0.1470402 -0.2232347 0.6853856 0.1070374 -0.2082754 0.65854 0.1070097 0.1220873 0.7568382 0.1469713 0.3590222 0.6938109 0.1069788 0.3148823 0.7146484 0.1469713 0.3590222 0.6938109 0.1469792 0.3118797 0.7871426 0.1069807 0.2934322 0.7571145 0.1069788 0.3148823 0.7146484 0.1469792 0.3118797 0.7871426 0.1069807 0.2934322 0.7571145 0.1468812 0.3606038 -0.7155477 0.1469073 0.1458076 -0.6677995 0.1069058 0.1367567 -0.6965171 0.1068846 0.3165256 -0.7364782 0.1469022 0.119624 -0.8091182 0.1468693 0.3138006 -0.8088046 0.1068752 0.2952705 -0.7788301 0.1069045 0.12393 -0.7791076 0.1468693 0.3138006 -0.8088046 0.1468812 0.3606038 -0.7155477 0.1068846 0.3165256 -0.7364782 0.1068752 0.2952705 -0.7788301 0.1469445 -0.09303212 -0.569207 0.1069443 -0.1099992 -0.5946572 0.1469476 -0.2215923 -0.7084063 0.1069481 -0.2066902 -0.6815233 0.1469792 -0.2783471 -0.3843396 0.1069801 -0.3037629 -0.4013606 0.1469914 -0.498289 -0.5030574 0.1069907 -0.4732329 -0.4835929 0.1470087 -0.3788104 -0.1426278 0.1070107 -0.4088066 -0.1486285 0.1470271 -0.6477926 -0.1706455 0.107025 -0.6178032 -0.1646386 0.1470265 -0.3791274 0.1191305 0.1070294 -0.4091381 0.125064 0.147049 -0.6481766 0.1468083 0.1070461 -0.6181729 0.1408796 0.1470308 -0.2792496 0.3610848 0.1070339 -0.3047065 0.3780496 0.1470537 -0.4993833 0.4794791 0.1070507 -0.4742863 0.4600805 -0.139569 0.1434981 0.6459628 -0.1395464 -0.09510338 0.546792 -0.1125428 -0.1121239 0.5722021 -0.1125658 0.1343897 0.6746608 -0.1395266 -0.2239553 0.6857905 -0.1395549 0.1169792 0.7872217 -0.1125564 0.121376 0.7572265 -0.112529 -0.2089881 0.6589404 -0.1395958 0.3583 0.694233 -0.1125876 0.3141707 0.7150612 -0.1395882 0.3111606 0.7875352 -0.1125862 0.2927273 0.7575038 -0.1395882 0.3111606 0.7875352 -0.1395958 0.3583 0.694233 -0.1125876 0.3141707 0.7150612 -0.1125862 0.2927273 0.7575038 -0.1396597 0.1450886 -0.667407 -0.1396859 0.3598846 -0.7151262 -0.1126821 0.3158184 -0.736071 -0.1126608 0.1360496 -0.696133 -0.1396859 0.3598846 -0.7151262 -0.1396976 0.313078 -0.8084122 -0.1126913 0.2945564 -0.7784467 -0.1126821 0.3158184 -0.736071 -0.1396976 0.313078 -0.8084122 -0.1396651 0.1189036 -0.8087258 -0.1126623 0.1232203 -0.7787225 -0.1126913 0.2945564 -0.7784467 -0.1396222 -0.09375309 -0.5688143 -0.1126219 -0.1107115 -0.5942708 -0.1396191 -0.2223126 -0.7080019 -0.1126181 -0.2074019 -0.6811253 -0.139587 -0.2790681 -0.3839471 -0.1125856 -0.3044767 -0.4009749 -0.1395748 -0.4990099 -0.5026299 -0.1125751 -0.4739463 -0.4831722 -0.1395578 -0.3795313 -0.1422358 -0.1125553 -0.4095206 -0.1482425 -0.1395398 -0.6485126 -0.1702524 -0.1125413 -0.6185165 -0.1642516 -0.1395399 -0.3798484 0.1195222 -0.1125366 -0.4098522 0.1254508 -0.1395177 -0.6488975 0.147201 -0.1125201 -0.618887 0.1412675 -0.1395363 -0.2799703 0.3614773 -0.1125327 -0.3054199 0.3784381 -0.139513 -0.5001041 0.4799065 -0.1125156 -0.4749995 0.4605041 -0.2024287 -0.6165819 -0.0934019 -0.1611005 -0.6165819 -0.0934019 -0.1643418 -0.6165819 -0.0538246 -0.2056701 -0.6165819 -0.0538246 -0.1474253 -0.6165819 0.146596 -0.106097 -0.6165819 0.146596 -0.106097 -0.5632841 0.146596 -0.1474253 -0.5632841 0.146596 -0.2056701 -0.5632841 -0.0538246 -0.1643418 -0.5632841 -0.0538246 -0.1611005 -0.5632841 -0.0934019 -0.2024287 -0.5632841 -0.0934019 -0.1474253 -0.5632841 -0.2112979 -0.106097 -0.5632841 -0.2112979 -0.106097 -0.6165819 -0.2112979 -0.1474253 -0.6165819 -0.2112979 -0.1611005 -0.6165819 -0.0934019 -0.1611005 -0.5632841 -0.0934019 -0.1643418 -0.5632841 -0.0538246 -0.1643418 -0.6165819 -0.0538246 -0.2024287 -0.5632841 -0.0934019 -0.2024287 -0.6165819 -0.0934019 -0.2056701 -0.6165819 -0.0538246 -0.2056701 -0.5632841 -0.0538246 -0.1474253 -0.6165819 -0.2112979 -0.106097 -0.6165819 -0.2112979 -0.1059716 -0.6165819 -0.1525519 -0.1472999 -0.6165819 -0.1525519 -0.106097 -0.6165819 -0.2112979 -0.106097 -0.5632841 -0.2112979 -0.1059716 -0.5632841 -0.1525519 -0.1059716 -0.6165819 -0.1525519 -0.1472999 -0.5632841 -0.1525519 -0.1059716 -0.5632841 -0.1525519 -0.106097 -0.5632841 -0.2112979 -0.1474253 -0.5632841 -0.2112979 -0.1474253 -0.5632841 -0.2112979 -0.1474253 -0.6165819 -0.2112979 -0.1472999 -0.6165819 -0.1525519 -0.1472999 -0.5632841 -0.1525519 -0.1411564 -0.5632841 0.0664277 -0.09982812 -0.5632841 0.0664277 -0.1633725 -0.5632841 2.22251e-5 -0.2047008 -0.5632841 2.224e-5 -0.1633725 -0.6165819 2.22474e-5 -0.1633725 -0.5632841 2.22251e-5 -0.09982812 -0.5632841 0.0664277 -0.09982812 -0.6165819 0.0664277 -0.2047008 -0.6165819 2.22474e-5 -0.1633725 -0.6165819 2.22474e-5 -0.09982812 -0.6165819 0.0664277 -0.1411564 -0.6165819 0.0664277 -0.2047008 -0.5632841 2.224e-5 -0.2047008 -0.6165819 2.22474e-5 -0.1411564 -0.6165819 0.0664277 -0.1411564 -0.5632841 0.0664277 -0.1474253 -0.5632841 0.146596 -0.106097 -0.5632841 0.146596 -0.106097 -0.6165819 0.146596 -0.1474253 -0.6165819 0.146596 -0.1474253 -0.6165819 0.146596 -0.1474253 -0.5632841 0.146596</float_array>
          <technique_common>
            <accessor source="#Moon_shield_Moon_Shield1_0-mesh-positions-array" count="449" stride="3">
              <param name="X" type="float"/>
              <param name="Y" type="float"/>
              <param name="Z" type="float"/>
            </accessor>
          </technique_common>
        </source>
        <source id="Moon_shield_Moon_Shield1_0-mesh-normals">
          <float_array id="Moon_shield_Moon_Shield1_0-mesh-normals-array" count="1155">0.2013255 0.486061 -0.8504192 0.350848 0.3508793 -0.8682104 0.139281 -2.59887e-7 -0.9902529 0.3508673 -0.3508599 -0.8682106 0.201317 -0.4860213 -0.8504438 0.4961953 4.04567e-6 -0.8682109 0.3508664 0.3508602 0.8682107 0.201332 0.4860612 0.8504176 0.1392806 -2.99115e-7 0.990253 0.201327 -0.4860609 0.8504189 0.3508706 -0.3508565 0.8682106 0.4961953 8.75113e-6 0.8682109 0.2989194 0.7216662 -0.6243759 0.5347571 0.5347667 -0.6542626 0.5347592 -0.5347656 -0.6542618 0.2989275 -0.7216743 -0.6243625 0.756268 2.38977e-6 -0.654262 0.3617502 0.8733476 -0.3261913 0.6624066 0.6623992 -0.3499212 0.6624028 -0.6624028 -0.3499219 0.3617503 -0.8733432 -0.3262034 0.9367793 -1.10175e-6 -0.3499209 0.3826833 0.9238796 4.06596e-6 0.7071074 0.7071063 2.27447e-7 0.7071065 -0.7071071 4.12418e-7 0.3826832 -0.9238796 -3.59504e-6 1 -3.12397e-7 0 0.3617489 0.8733434 0.3262042 0.6623998 0.6624063 0.3499207 0.6624011 -0.6624048 0.3499212 0.3617457 -0.873333 0.3262355 0.9367793 3.23169e-7 0.349921 0.2989256 0.721675 0.6243627 0.5347579 0.5347662 0.6542624 0.5347593 -0.5347648 0.6542623 0.2989206 -0.721665 0.6243765 0.7562681 -4.04194e-6 0.654262 0 0.01195144 -0.9999287 0 0.01195144 -0.9999287 0 -0.01195174 0.9999287 0 -0.0119518 0.9999286 -1 0 0 -1 0 0 0 -1 -1.8505e-6 0 -1 0 0 0 1 0 1 -8.54077e-7 0 1 2.27754e-6 0 -2.79584e-7 -1 0 0 -1 0.8608148 0 0.5089184 0.8608294 -2.40079e-7 0.5088937 0.9997037 2.8709e-7 0.02434504 0.9997047 0 0.02430284 -0.8608333 0 -0.5088871 -0.8608297 4.06066e-5 -0.5088932 -0.9997042 0 -0.02432364 -0.9997044 -1.02893e-5 -0.02431482 0 -1 0 0 -1 1.53439e-6 0.9999977 0 -0.002134203 0.9999977 0 -0.002134203 0.9062326 0 0.4227797 0.9062384 -2.39316e-5 0.4227671 0 1 -6.56309e-7 0 1 0 -0.9999977 0 0.00213474 -0.9999977 0 0.00213474 -0.9062358 0 -0.4227727 -0.9062273 0 -0.422791 0.881204 0 -0.4727362 0.8812004 -1.28791e-7 -0.4727429 0.7225004 -3.54938e-7 -0.6913705 0.7225005 -5.33378e-7 -0.6913704 0 -1 -1.3574e-6 0 -1 1.3574e-6 -0.8811993 -1.03266e-4 0.4727449 -0.8812195 0 0.4727075 -0.9314137 3.21164e-7 0.3639624 -0.9314129 -1.01225e-5 0.3639645 0 1 -2.81093e-7 0 -1 1.40546e-7 -0.9969567 1.61949e-7 -0.0779587 -0.9969566 0 -0.0779587 0 -1 -1.52391e-6 0 -1 1.5239e-6 0 1 -1.52391e-6 0 1 1.5239e-6 0 1 -2.09248e-7 0 -1 2.09248e-7 0 0.01195144 -0.9999286 0 0.01195156 -0.9999287 0 -0.01195162 0.9999287 0 -0.01195156 0.9999286 -1 0 0 0.002381384 -0.446021 0.8950193 0.001817405 -0.1813287 0.9834209 0.001740574 -0.1816601 0.9833598 0.002391576 -0.4462752 0.8948926 0.001374185 -0.001615285 0.9999979 0.001374602 -0.001614987 0.9999979 -0.00137341 0.001615285 -0.9999978 -0.00100708 -0.1787954 -0.9838858 -9.09721e-4 -0.179207 -0.983811 -0.00137341 0.001615285 -0.9999979 -1.54599e-4 -0.4439369 -0.8960581 -1.32416e-4 -0.4444935 -0.8957822 0.001039803 -0.7844309 -0.6202155 0.001079738 -0.7849473 -0.6195615 0.002130985 -0.9746527 -0.2237137 0.002166688 -0.9747497 -0.22329 0.002762913 -0.9752216 0.2212128 0.002770364 -0.9751843 0.2213773 0.00286895 -0.7860113 0.6182056 0.002891063 -0.7860969 0.6180965 1 1.3012e-4 -8.72535e-5 1 9.75905e-5 -4.64816e-5 -1 -1.08879e-4 3.73375e-5 -1 -1.11606e-4 9.67325e-5 1 1.18544e-4 1.59936e-5 1 1.69265e-4 -8.10594e-5 -0.001572012 0.8925501 0.4509457 -0.001627743 0.8925948 0.4508571 -1 -1.41672e-4 9.20123e-5 -1 -1.73728e-4 -5.51542e-5 1 1.10596e-4 -3.29862e-5 1 9.93394e-5 1.9506e-5 1 7.28123e-5 1.60906e-4 1 9.9302e-5 1.94977e-5 -1 -2.23314e-4 -2.02413e-4 -1 -2.13187e-4 -5.06696e-5 -1 -2.17272e-4 -4.85851e-5 -1 -1.69053e-4 4.43865e-5 -0.002916336 0.8937532 -0.4485496 -0.002861261 0.893797 -0.4484627 1 1.19438e-4 -8.82301e-5 1 1.21838e-4 -3.4695e-5 -1 -1.41029e-4 4.0074e-5 -1 -1.10677e-4 7.89916e-5 1 1.02559e-4 -8.26554e-5 1 1.05615e-4 -7.28006e-5 -1 -1.09496e-4 7.78818e-5 -1 -1.01435e-4 8.07244e-5 1 7.56054e-5 -8.96391e-5 1 9.40058e-5 -6.51346e-5 -1 -1.00217e-4 7.8385e-5 -1 -7.23803e-5 7.30393e-5 1 7.49335e-5 -6.82103e-5 1 7.39712e-5 -6.89248e-5 -1 -7.2003e-5 6.83497e-5 -1 -7.36211e-5 6.93883e-5 1 7.53123e-5 -4.88517e-5 1 7.64497e-5 -4.86052e-5 -1 -7.5312e-5 4.63817e-5 -1 -7.70544e-5 4.87947e-5 1 9.80794e-5 -4.61238e-5 1 7.94404e-5 -3.97856e-5 -1 -8.49482e-5 3.24557e-5 -1 -9.22189e-5 5.59898e-5 -0.001943588 0.2191811 -0.9756823 -0.002092242 0.3016154 -0.9534274 -0.002095699 0.3017538 -0.9533837 -0.002007603 0.2192513 -0.9756664 -0.002537846 0.5564485 -0.8308783 -0.002538204 0.5567005 -0.8307095 -0.002852559 0.8321241 -0.5545822 -0.002852916 0.8321521 -0.55454 -0.002732455 0.9810376 -0.1937984 -0.00273329 0.9809967 -0.1940053 -0.002196431 0.9805026 0.1964942 -0.002197504 0.9805894 0.1960605 -0.001326203 0.8306263 0.5568287 -0.001327872 0.8309649 0.5563234 -2.5315e-4 0.5542795 0.8323307 -2.55187e-4 0.5548477 0.831952 5.84933e-4 0.2993059 0.9541571 5.7844e-4 0.29969 0.9540365 9.09161e-4 0.2170004 0.9761712 8.46819e-4 0.216932 0.9761863 1 1.17554e-4 -5.04662e-5 1 1.12213e-4 -4.14325e-5 1 9.90389e-5 -5.03885e-5 1 9.93188e-5 -5.1543e-5 1 1.41795e-4 -6.17495e-5 1 1.35231e-4 -4.47749e-5 1 1.30866e-4 -3.10155e-5 1 1.71011e-4 1.98983e-6 1 1.65082e-4 -4.18746e-5 1 1.67051e-4 -5.33791e-5 1 1.05411e-4 -8.86784e-5 1 1.08071e-4 -6.23111e-5 1 1.67084e-4 -8.66226e-5 1 1.69351e-4 -1.01814e-4 1 1.63978e-4 -1.79671e-4 1 5.53386e-5 -1.55039e-4 1 1.1805e-4 -8.87811e-5 1 1.1726e-4 -9.24412e-5 1 1.06634e-4 -9.27808e-5 1 1.08726e-4 -8.24678e-5 1 9.84172e-5 -9.20809e-5 1 1.07212e-4 -8.10731e-5 1 9.9962e-5 -7.7702e-5 1 9.69277e-5 -8.27874e-5 1 8.60844e-5 -8.71127e-5 1 9.29813e-5 -8.35625e-5 1 8.51311e-5 -6.83009e-5 1 8.43267e-5 -7.00406e-5 1 8.47634e-5 -6.78964e-5 1 8.06472e-5 -6.80423e-5 1 8.10177e-5 -6.88896e-5 1 8.13615e-5 -6.89969e-5 1 8.51823e-5 -5.30978e-5 1 8.7288e-5 -5.32424e-5 1 8.5727e-5 -5.19363e-5 1 8.28804e-5 -5.15925e-5 1 1.0345e-4 -4.76379e-5 1 9.44037e-5 -4.05921e-5 1 8.4941e-5 -4.96219e-5 1 8.98047e-5 -5.5227e-5 -1 -1.13951e-4 4.36946e-5 -1 -1.17261e-4 5.36891e-5 -1 -9.87868e-5 5.31122e-5 -1 -9.87963e-5 5.32e-5 -1 -1.38093e-4 4.71155e-5 -1 -1.40164e-4 6.99732e-5 -1 -1.69801e-4 5.51142e-5 -1 -1.71659e-4 4.24327e-5 -1 -1.69139e-4 1.00999e-5 -1 -1.15226e-4 2.22471e-5 -1 -1.09964e-4 6.75944e-5 -1 -1.0243e-4 8.68239e-5 -1 -8.60136e-5 1.39653e-4 -1 -1.80251e-4 2.14831e-4 -1 -1.6551e-4 1.00255e-4 -1 -1.66999e-4 8.91441e-5 -1 -1.19045e-4 9.20283e-5 -1 -1.19181e-4 9.22718e-5 -1 -1.11077e-4 8.36863e-5 -1 -1.07502e-4 9.19508e-5 -1 -1.07053e-4 8.47326e-5 -1 -9.67755e-5 9.38549e-5 -1 -9.63755e-5 8.41019e-5 -1 -1.01481e-4 7.85873e-5 -1 -8.86e-5 8.41717e-5 -1 -8.53904e-5 8.57578e-5 -1 -8.11006e-5 6.87757e-5 -1 -8.41936e-5 6.76411e-5 -1 -7.95285e-5 6.80188e-5 -1 -8.34928e-5 6.82129e-5 -1 -8.40691e-5 6.96123e-5 -1 -8.13615e-5 6.94198e-5 -1 -8.59744e-5 5.01808e-5 -1 -8.72881e-5 5.1158e-5 -1 -8.50635e-5 5.19135e-5 -1 -8.57095e-5 5.29163e-5 -1 -9.63667e-5 3.88063e-5 -1 -1.04841e-4 5.00112e-5 -1 -9.15638e-5 5.74507e-5 -1 -8.5653e-5 4.96562e-5 0.6075215 -0.443255 0.6591227 0.6014806 -0.2502501 0.7586805 0.6014811 -0.250248 0.7586807 0.6075217 -0.44325 0.6591258 0.6035307 0.1513203 -0.7828493 0.6091549 0.3557333 -0.7087907 0.6090415 0.3515307 -0.7109814 0.6035294 0.1513146 -0.7828513 0.6000658 -0.1752142 0.7805262 0.6000651 -0.1752145 0.7805266 0.6000857 -0.7139992 -0.3606969 0.6001127 -0.7139897 -0.3606706 0.5999624 0.001391708 -0.800027 0.5999627 0.001391708 -0.8000268 0.5999452 -0.1735375 -0.7809933 0.6013715 -0.248516 -0.7593366 0.6013706 -0.2485166 -0.7593371 0.599944 -0.1735375 -0.7809943 0.6036644 0.149313 0.7831316 0.6000844 -0.001190006 0.7999358 0.6000828 -0.001190423 0.799937 0.6036632 0.1493524 0.783125 0.6001607 -0.714928 0.358727 0.6001048 -0.7149891 0.3586988 0.6074352 -0.4416608 -0.6602714 0.6074352 -0.4417045 -0.6602421 0.6092632 0.3541812 0.7094746 0.6091449 0.3500129 0.7116415 0.6074661 -0.6598992 -0.4421742 0.607467 -0.6599007 -0.4421707 0.6177649 0.616851 0.4877104 0.6177979 0.615058 0.489928 0.6074974 -0.7788602 -0.1559607 0.6074975 -0.778861 -0.1559565 0.6107581 0.7716844 0.1774201 0.6107702 0.7712341 0.1793262 0.6075201 -0.7792337 0.1539942 0.60752 -0.779233 0.1539982 0.6107322 0.7720849 -0.1757594 0.6107475 0.7716281 -0.1777014 0.6075255 -0.660966 0.440496 0.6075251 -0.6609636 0.4405001 0.6176709 0.6179194 -0.4864755 0.6176941 0.616136 -0.4887027 -0.7444381 -0.2092798 0.6340457 -0.7496206 -0.3693498 0.5492265 -0.7496204 -0.369436 0.5491687 -0.7444373 -0.2092764 0.6340476 -0.7512969 0.2965018 -0.5896097 -0.7464466 0.1261218 -0.6533842 -0.7464472 0.1261335 -0.6533812 -0.7511792 0.2921798 -0.591913 -0.7432172 -0.1467766 0.6527518 -0.7432154 -0.1467767 0.6527539 -0.7433273 9.52424e-4 -0.6689273 -0.7433274 9.52514e-4 -0.6689271 -0.7431756 -0.597227 -0.3016788 -0.7432113 -0.5971771 -0.3016893 -0.7445482 -0.2077674 -0.6344138 -0.7433373 -0.1451564 -0.6529773 -0.7433375 -0.1451562 -0.6529771 -0.7445483 -0.2077616 -0.6344156 -0.7431654 -0.5980111 0.3001465 -0.7430812 -0.5980681 0.3002414 -0.7432045 -0.001203 0.6690632 -0.7463557 0.1245222 0.6537947 -0.7463545 0.1245104 0.6537983 -0.7432034 -0.001202642 0.6690645 -0.7497093 -0.3680583 -0.5499719 -0.7497097 -0.3681322 -0.5499219 -0.7512244 0.2952087 0.5903506 -0.7510971 0.2909173 0.5926386 -0.7496775 -0.5498772 -0.3682644 -0.7496782 -0.5498707 -0.3682727 -0.7585017 0.5113055 0.4040321 -0.7585316 0.5094564 0.4063053 -0.7496457 -0.6489795 -0.1298347 -0.7496458 -0.6489775 -0.1298438 -0.7526376 0.6417108 0.1474585 -0.752645 0.6412481 0.149421 -0.7496241 -0.6492959 0.1283695 -0.749624 -0.6492974 0.1283623 -0.752655 0.6420482 -0.1458928 -0.7526701 0.6415748 -0.1478839 -0.7496173 -0.5507758 0.3670421 -0.7496169 -0.5507785 0.3670389 -0.758531 0.5122225 -0.4028137 -0.7585499 0.5103893 -0.4050988 0 -1 8.54078e-7 0 -1 -2.27754e-6 0 1 1.13877e-6 0 1 -2.27754e-6 0.8608149 0 0.5089182 0.8608294 0 0.5088936 0.9997037 0 0.02434504 0.9997047 0 0.02430278 -0.8608332 0 -0.5088874 -0.8608297 0 -0.5088933 -0.9997042 0 -0.02432364 -0.9997044 -1.02893e-5 -0.02431476 0 -1 5.5142e-7 0.9999977 0 -0.002134203 0.9999977 0 -0.002134203 0.9062325 0 0.4227799 0.9062384 0 0.4227671 0 1 3.41641e-7 -0.9999977 0 0.00213474 -0.906236 0 -0.4227724 -0.9062273 0 -0.422791 0 1 -1.3574e-6 0.8812041 0 -0.4727363 0.8812004 0 -0.4727429 0.7225002 -3.54938e-7 -0.6913708 0.7225002 -5.33378e-7 -0.6913709 0 -1 -2.7148e-6 -0.8811993 -6.82206e-5 0.4727451 -0.8812195 0 0.4727075 -0.9314137 0 0.3639625 -0.9314128 1.14303e-6 0.3639649 0 -1 1.12437e-6 0 -1 -1.12437e-6 -0.9969567 0 -0.07795858 -0.9969567 0 -0.07795858 0 1 0 0 -1 0 0 -1 1.67398e-6</float_array>
          <technique_common>
            <accessor source="#Moon_shield_Moon_Shield1_0-mesh-normals-array" count="385" stride="3">
              <param name="X" type="float"/>
              <param name="Y" type="float"/>
              <param name="Z" type="float"/>
            </accessor>
          </technique_common>
        </source>
        <source id="Moon_shield_Moon_Shield1_0-mesh-map-0">
          <float_array id="Moon_shield_Moon_Shield1_0-mesh-map-0-array" count="2424">0.3480621 0.9188649 0.3492545 0.911347 0.3382691 0.9084975 0.3413778 0.897799 0.3347187 0.8953016 0.3382691 0.9084975 0.3465245 0.9037982 0.3413778 0.897799 0.3382691 0.9084975 0.3492545 0.911347 0.3465245 0.9037982 0.3382691 0.9084975 0.3942435 0.8831768 0.4009027 0.885674 0.397352 0.8724782 0.387559 0.8621111 0.3863667 0.869629 0.397352 0.8724782 0.3863667 0.869629 0.3890968 0.8771777 0.397352 0.8724782 0.3890968 0.8771777 0.3942435 0.8831768 0.397352 0.8724782 0.3492545 0.911347 0.3480621 0.9188649 0.3608012 0.9242228 0.3492545 0.911347 0.3608012 0.9242228 0.3590912 0.9111419 0.3347187 0.8953016 0.3413778 0.897799 0.3458389 0.8891639 0.3347187 0.8953016 0.3458389 0.8891639 0.3353598 0.8824115 0.3413778 0.897799 0.3465245 0.9037982 0.3536762 0.8993157 0.3413778 0.897799 0.3536762 0.8993157 0.3458389 0.8891639 0.3465245 0.9037982 0.3492545 0.911347 0.3590912 0.9111419 0.3465245 0.9037982 0.3590912 0.9111419 0.3536762 0.8993157 0.3590912 0.9111419 0.3608012 0.9242228 0.3741149 0.9242185 0.3590912 0.9111419 0.3741149 0.9242185 0.3681755 0.9088187 0.3353598 0.8824115 0.3458389 0.8891639 0.3518147 0.8819772 0.3353598 0.8824115 0.3518147 0.8819772 0.3404449 0.870711 0.3458389 0.8891639 0.3536762 0.8993157 0.3607062 0.8948932 0.3458389 0.8891639 0.3607062 0.8948932 0.3518147 0.8819772 0.3536762 0.8993157 0.3590912 0.9111419 0.3681755 0.9088187 0.3536762 0.8993157 0.3681755 0.9088187 0.3607062 0.8948932 0.3681755 0.9088187 0.3741149 0.9242185 0.386096 0.9192624 0.3681755 0.9088187 0.386096 0.9192624 0.3765007 0.9047175 0.3404449 0.870711 0.3518147 0.8819772 0.3591206 0.8762586 0.3404449 0.870711 0.3591206 0.8762586 0.3495255 0.8617136 0.3518147 0.8819772 0.3607062 0.8948932 0.3678107 0.8904881 0.3518147 0.8819772 0.3678107 0.8904881 0.3591206 0.8762586 0.3607062 0.8948932 0.3681755 0.9088187 0.3765007 0.9047175 0.3607062 0.8948932 0.3765007 0.9047175 0.3678107 0.8904881 0.3765007 0.9047175 0.386096 0.9192624 0.3951767 0.9102647 0.3765007 0.9047175 0.3951767 0.9102647 0.3838068 0.8989989 0.3495255 0.8617136 0.3591206 0.8762586 0.3674459 0.8721573 0.3495255 0.8617136 0.3674459 0.8721573 0.3615065 0.8567574 0.3591206 0.8762586 0.3678107 0.8904881 0.3749151 0.8860829 0.3591206 0.8762586 0.3749151 0.8860829 0.3674459 0.8721573 0.3678107 0.8904881 0.3765007 0.9047175 0.3838068 0.8989989 0.3678107 0.8904881 0.3838068 0.8989989 0.3749151 0.8860829 0.3838068 0.8989989 0.3951767 0.9102647 0.4002616 0.8985642 0.3838068 0.8989989 0.4002616 0.8985642 0.3897826 0.8918121 0.3615065 0.8567574 0.3674459 0.8721573 0.3765302 0.8698341 0.3615065 0.8567574 0.3765302 0.8698341 0.3748201 0.8567532 0.3674459 0.8721573 0.3749151 0.8860829 0.3819452 0.8816604 0.3674459 0.8721573 0.3819452 0.8816604 0.3765302 0.8698341 0.3749151 0.8860829 0.3838068 0.8989989 0.3897826 0.8918121 0.3749151 0.8860829 0.3897826 0.8918121 0.3819452 0.8816604 0.3897826 0.8918121 0.4002616 0.8985642 0.4009027 0.885674 0.3897826 0.8918121 0.4009027 0.885674 0.3942435 0.8831768 0.3748201 0.8567532 0.3765302 0.8698341 0.3863667 0.869629 0.3748201 0.8567532 0.3863667 0.869629 0.387559 0.8621111 0.3765302 0.8698341 0.3819452 0.8816604 0.3890968 0.8771777 0.3765302 0.8698341 0.3890968 0.8771777 0.3863667 0.869629 0.3819452 0.8816604 0.3897826 0.8918121 0.3942435 0.8831768 0.3819452 0.8816604 0.3942435 0.8831768 0.3890968 0.8771777 0.1640369 0.9857664 0.1642016 0.9490656 0.1542816 0.9490211 0.1640369 0.9857664 0.1542816 0.9490211 0.154117 0.985722 0.1455537 0.948982 0.1356337 0.9489374 0.135469 0.9856383 0.1455537 0.948982 0.135469 0.9856383 0.145389 0.9856828 0.154117 0.985722 0.1542816 0.9490211 0.1455537 0.948982 0.154117 0.985722 0.1455537 0.948982 0.145389 0.9856828 0.8312488 0.9599446 0.8425622 0.9596913 0.8414323 0.948877 0.8312488 0.9599446 0.8414323 0.948877 0.8301188 0.9491304 0.7051902 0.9825649 0.7165064 0.9825908 0.7165398 0.9679971 0.7051902 0.9825649 0.7165398 0.9679971 0.7052235 0.9679712 0.5160608 0.9457105 0.5145568 0.9569264 0.5251795 0.9592463 0.5160608 0.9457105 0.5251795 0.9592463 0.5266835 0.9480305 0.5941941 0.9677174 0.5828778 0.9676916 0.5828444 0.9822852 0.5941941 0.9677174 0.5828444 0.9822852 0.5941607 0.982311 0.7839884 0.9867256 0.7841079 0.9721325 0.7732352 0.9720433 0.7839884 0.9867256 0.7732352 0.9720433 0.7731156 0.9866365 0.6324194 0.9678048 0.632386 0.9823985 0.6432592 0.9824233 0.6324194 0.9678048 0.6432592 0.9824233 0.6432926 0.9678297 0.8470283 0.991881 0.8583418 0.9916277 0.858016 0.9755455 0.8470283 0.991881 0.858016 0.9755455 0.8467026 0.9757988 0.8222126 0.9870389 0.8223322 0.9724456 0.8062471 0.9723138 0.8222126 0.9870389 0.8062471 0.9723138 0.8061276 0.986907 0.5407297 0.9651442 0.5392258 0.9763601 0.5551731 0.9784639 0.5407297 0.9651442 0.5551731 0.9784639 0.5566771 0.967248 0.5941941 0.9677174 0.5941607 0.982311 0.6102462 0.9823479 0.5941941 0.9677174 0.6102462 0.9823479 0.6102796 0.9677541 0.4810783 0.9588424 0.4795743 0.9700583 0.4999083 0.9552299 0.4810783 0.9588424 0.4999083 0.9552299 0.5014123 0.944014 0.7583697 0.9865157 0.7584893 0.9719225 0.7333236 0.9717163 0.7583697 0.9865157 0.7333236 0.9717163 0.7332041 0.9863094 0.8300541 0.9343841 0.8413676 0.9341308 0.8583556 0.9155631 0.8300541 0.9343841 0.8583556 0.9155631 0.8470421 0.9158164 0.6580389 0.9678633 0.6580055 0.9824571 0.6831719 0.9825146 0.6580389 0.9678633 0.6831719 0.9825146 0.6832054 0.967921 0.4595499 0.9542237 0.4580459 0.9654396 0.4795743 0.9700583 0.4595499 0.9542237 0.4795743 0.9700583 0.4810783 0.9588424 0.8470421 0.9158164 0.8583556 0.9155631 0.8561481 0.8936558 0.8470421 0.9158164 0.8561481 0.8936558 0.8448346 0.8939091 0.6832054 0.967921 0.6831719 0.9825146 0.7051902 0.9825649 0.6832054 0.967921 0.7051902 0.9825649 0.7052235 0.9679712 0.8467026 0.9757988 0.858016 0.9755455 0.8425622 0.9596913 0.8467026 0.9757988 0.8425622 0.9596913 0.8312488 0.9599446 0.8061276 0.986907 0.8062471 0.9723138 0.7841079 0.9721325 0.8061276 0.986907 0.7841079 0.9721325 0.7839884 0.9867256 0.5266835 0.9480305 0.5251795 0.9592463 0.5392258 0.9763601 0.5266835 0.9480305 0.5392258 0.9763601 0.5407297 0.9651442 0.6102796 0.9677541 0.6102462 0.9823479 0.632386 0.9823985 0.6102796 0.9677541 0.632386 0.9823985 0.6324194 0.9678048 0.7731156 0.9866365 0.7732352 0.9720433 0.7584893 0.9719225 0.7731156 0.9866365 0.7584893 0.9719225 0.7583697 0.9865157 0.5014123 0.944014 0.4999083 0.9552299 0.5145568 0.9569264 0.5014123 0.944014 0.5145568 0.9569264 0.5160608 0.9457105 0.6432926 0.9678297 0.6432592 0.9824233 0.6580055 0.9824571 0.6432926 0.9678297 0.6580055 0.9824571 0.6580389 0.9678633 0.8301188 0.9491304 0.8414323 0.948877 0.8413676 0.9341308 0.8301188 0.9491304 0.8413676 0.9341308 0.8300541 0.9343841 0.2236204 0.983762 0.2240556 0.9470633 0.2141362 0.9469458 0.2236204 0.983762 0.2141362 0.9469458 0.213701 0.9836444 0.2054088 0.9468423 0.1954894 0.9467246 0.1950542 0.9834232 0.2054088 0.9468423 0.1950542 0.9834232 0.2049736 0.9835409 0.213701 0.9836444 0.2141362 0.9469458 0.2054088 0.9468423 0.213701 0.9836444 0.2054088 0.9468423 0.2049736 0.9835409 0.2257749 0.02494877 0.1253576 0.02467668 0.1252971 0.103143 0.2257749 0.02494877 0.1252971 0.103143 0.2257135 0.1034151 0.1253576 0.02467668 0.0659365 0.02449154 0.06587606 0.1029581 0.1253576 0.02467668 0.06587606 0.1029581 0.1252971 0.103143 0.8788002 0.02450793 0.8193789 0.02460157 0.8193184 0.1030681 0.8788002 0.02450793 0.8193184 0.1030681 0.8787398 0.1029745 0.8193789 0.02460157 0.7189396 0.02479249 0.7188783 0.103259 0.8193789 0.02460157 0.7188783 0.103259 0.8193184 0.1030681 0.7189396 0.02479249 0.621148 0.02498346 0.6210828 0.1034497 0.7189396 0.02479249 0.6210828 0.1034497 0.7188783 0.103259 0.621148 0.02498346 0.5174319 0.02513492 0.5173754 0.1036015 0.621148 0.02498346 0.5173754 0.1036015 0.6210828 0.1034497 0.5174319 0.02513492 0.4272403 0.02518773 0.4271839 0.1036543 0.5174319 0.02513492 0.4271839 0.1036543 0.5173754 0.1036015 0.4272403 0.02518773 0.3235383 0.02513599 0.3234733 0.1036023 0.4272403 0.02518773 0.3234733 0.1036023 0.4271839 0.1036543 0.3235383 0.02513599 0.2257749 0.02494877 0.2257135 0.1034151 0.3235383 0.02513599 0.2257135 0.1034151 0.3234733 0.1036023 0.5605279 0.1650343 0.6278419 0.1357406 0.6235998 0.1130021 0.5605279 0.1650343 0.6235998 0.1130021 0.534402 0.1409242 0.2324371 0.5428729 0.1646896 0.5149419 0.1387369 0.5392386 0.2324371 0.5428729 0.1387369 0.5392386 0.2287613 0.5656195 0.6278419 0.1357406 0.6745161 0.1211647 0.6683956 0.11115 0.6278419 0.1357406 0.6683956 0.11115 0.6235998 0.1130021 0.0217024 0.02435696 0.02165061 0.1028236 0.06587606 0.1029581 0.0217024 0.02435696 0.06587606 0.1029581 0.0659365 0.02449154 0.2805174 0.5555052 0.2324371 0.5428729 0.2287613 0.5656195 0.2805174 0.5555052 0.2287613 0.5656195 0.2746119 0.5662902 0.5990148 0.5797498 0.559511 0.5509771 0.5482006 0.5711526 0.5990148 0.5797498 0.5482006 0.5711526 0.5900424 0.5872412 0.1858599 0.1412707 0.2297573 0.1180089 0.2215731 0.1088825 0.1858599 0.1412707 0.2215731 0.1088825 0.177083 0.119968 0.9709337 0.9422488 0.892467 0.9423024 0.8924919 0.9864684 0.9709337 0.9422488 0.8924919 0.9864684 0.9709586 0.9864233 0.559511 0.5509771 0.5051261 0.5016541 0.4726567 0.5161058 0.559511 0.5509771 0.4726567 0.5161058 0.5482006 0.5711526 0.1262881 0.1839359 0.1858599 0.1412707 0.177083 0.119968 0.1262881 0.1839359 0.177083 0.119968 0.09546923 0.1662475 0.5051261 0.5016541 0.4687958 0.4347193 0.418441 0.4449753 0.5051261 0.5016541 0.418441 0.4449753 0.4726567 0.5161058 0.08410841 0.2467695 0.1262881 0.1839359 0.09546923 0.1662475 0.08410841 0.2467695 0.09546923 0.1662475 0.03467833 0.2325506 0.4687958 0.4347193 0.4561603 0.3594202 0.3991219 0.3529322 0.4687958 0.4347193 0.3991219 0.3529322 0.418441 0.4449753 0.06629562 0.3204613 0.08410841 0.2467695 0.03467833 0.2325506 0.06629562 0.3204613 0.03467833 0.2325506 0.008997976 0.323683 0.4561603 0.3594202 0.4687442 0.2841203 0.4122487 0.2718884 0.4561603 0.3594202 0.4122487 0.2718884 0.3991219 0.3529322 0.07516396 0.3957505 0.06629562 0.3204613 0.008997976 0.323683 0.07516396 0.3957505 0.008997976 0.323683 0.0184015 0.4057912 0.4687442 0.2841203 0.5046986 0.2168078 0.4602598 0.190938 0.4687442 0.2841203 0.4602598 0.190938 0.4122487 0.2718884 0.1092733 0.4634071 0.07516396 0.3957505 0.0184015 0.4057912 0.1092733 0.4634071 0.0184015 0.4057912 0.06439238 0.4886317 0.5046986 0.2168078 0.5605279 0.1650343 0.534402 0.1409242 0.5046986 0.2168078 0.534402 0.1409242 0.4602598 0.190938 0.1646896 0.5149419 0.1092733 0.4634071 0.06439238 0.4886317 0.1646896 0.5149419 0.06439238 0.4886317 0.1387369 0.5392386 0.8925507 0.3232814 0.8927392 0.3933902 0.9712057 0.3933387 0.8925507 0.3232814 0.9712057 0.3933387 0.9710175 0.3232278 0.8927392 0.3933902 0.8929008 0.4617954 0.9713675 0.461744 0.8927392 0.3933902 0.9713675 0.461744 0.9712057 0.3933387 0.8929008 0.4617954 0.8929983 0.5302007 0.9714649 0.5301491 0.8929008 0.4617954 0.9714649 0.5301491 0.9713675 0.461744 0.8929983 0.5302007 0.8930234 0.5986062 0.9714898 0.5985548 0.8929983 0.5302007 0.9714898 0.5985548 0.9714649 0.5301491 0.8930234 0.5986062 0.892979 0.6670114 0.9714455 0.6669601 0.8930234 0.5986062 0.9714455 0.6669601 0.9714898 0.5985548 0.892979 0.6670114 0.8928791 0.7354168 0.9713456 0.7353652 0.892979 0.6670114 0.9713456 0.7353652 0.9714455 0.6669601 0.8928791 0.7354168 0.8927453 0.8038221 0.9712118 0.8037706 0.8928791 0.7354168 0.9712118 0.8037706 0.9713456 0.7353652 0.8927453 0.8038221 0.8926053 0.8722274 0.9710718 0.8721758 0.8927453 0.8038221 0.9710718 0.8721758 0.9712118 0.8037706 0.8926053 0.8722274 0.892467 0.9423024 0.9709337 0.9422488 0.8926053 0.8722274 0.9709337 0.9422488 0.9710718 0.8721758 0.2064191 0.8440347 0.1411318 0.8657314 0.143481 0.8735651 0.2064191 0.8440347 0.143481 0.8735651 0.2104162 0.8514131 0.1511631 0.9322724 0.2495023 0.9104865 0.2461854 0.9027647 0.1511631 0.9322724 0.2461854 0.9027647 0.1506353 0.9239773 0.1411318 0.8657314 0.07179921 0.8836519 0.08394426 0.8894009 0.1411318 0.8657314 0.08394426 0.8894009 0.143481 0.8735651 0.07179921 0.8836519 0.09025216 0.9270825 0.09595149 0.9193546 0.07179921 0.8836519 0.09595149 0.9193546 0.08394426 0.8894009 0.09025216 0.9270825 0.1511631 0.9322724 0.1506353 0.9239773 0.09025216 0.9270825 0.1506353 0.9239773 0.09595149 0.9193546 0.1835941 0.4456204 0.2358096 0.4945799 0.2416276 0.4888317 0.1835941 0.4456204 0.2416276 0.4888317 0.1970052 0.4463993 0.27651 0.4409887 0.220549 0.416391 0.2218506 0.4259023 0.27651 0.4409887 0.2218506 0.4259023 0.2720718 0.4480171 0.220549 0.416391 0.1835941 0.4456204 0.1970052 0.4463993 0.220549 0.416391 0.1970052 0.4463993 0.2218506 0.4259023 0.2358096 0.4945799 0.2827003 0.5449334 0.2897233 0.540369 0.2358096 0.4945799 0.2897233 0.540369 0.2416276 0.4888317 0.352396 0.5072471 0.27651 0.4409887 0.2720718 0.4480171 0.352396 0.5072471 0.2720718 0.4480171 0.3457816 0.5124315 0.2827003 0.5449334 0.310245 0.6080496 0.3183615 0.6060181 0.2827003 0.5449334 0.3183615 0.6060181 0.2897233 0.540369 0.4043852 0.5895596 0.352396 0.5072471 0.3457816 0.5124315 0.4043852 0.5895596 0.3457816 0.5124315 0.3961557 0.5923056 0.310245 0.6080496 0.3157346 0.6769182 0.3240725 0.6776304 0.310245 0.6080496 0.3240725 0.6776304 0.3183615 0.6060181 0.4163866 0.6919448 0.4043852 0.5895596 0.3961557 0.5923056 0.4163866 0.6919448 0.3961557 0.5923056 0.4080626 0.6912696 0.3157346 0.6769182 0.298478 0.7438827 0.30614 0.7472358 0.3157346 0.6769182 0.30614 0.7472358 0.3240725 0.6776304 0.3943151 0.7790685 0.4163866 0.6919448 0.4080626 0.6912696 0.3943151 0.7790685 0.4080626 0.6912696 0.38667 0.7756754 0.298478 0.7438827 0.2607626 0.8017831 0.2669385 0.8074305 0.298478 0.7438827 0.2669385 0.8074305 0.30614 0.7472358 0.3345621 0.8631408 0.3943151 0.7790685 0.38667 0.7756754 0.3345621 0.8631408 0.38667 0.7756754 0.3286609 0.8567845 0.2607626 0.8017831 0.2064191 0.8440347 0.2104162 0.8514131 0.2607626 0.8017831 0.2104162 0.8514131 0.2669385 0.8074305 0.2495023 0.9104865 0.3345621 0.8631408 0.3286609 0.8567845 0.2495023 0.9104865 0.3286609 0.8567845 0.2461854 0.9027647 0.5753807 0.5205197 0.6363372 0.5520971 0.6414682 0.5454815 0.5753807 0.5205197 0.6414682 0.5454815 0.5787637 0.5130403 0.6869103 0.4981178 0.5934345 0.461441 0.5915694 0.4695322 0.6869103 0.4981178 0.5915694 0.4695322 0.6823456 0.505175 0.5090346 0.4954506 0.5753807 0.5205197 0.5787637 0.5130403 0.5090346 0.4954506 0.5787637 0.5130403 0.521789 0.491258 0.5934345 0.461441 0.5333218 0.4563478 0.5376945 0.4649298 0.5934345 0.461441 0.5376945 0.4649298 0.5915694 0.4695322 0.5333218 0.4563478 0.5090346 0.4954506 0.521789 0.491258 0.5333218 0.4563478 0.521789 0.491258 0.5376945 0.4649298 0.5854923 0.8898546 0.5206351 0.9184604 0.5335942 0.9219582 0.5854923 0.8898546 0.5335942 0.9219582 0.5892746 0.8971401 0.5206351 0.9184604 0.5469579 0.9561591 0.5508649 0.9473567 0.5206351 0.9184604 0.5508649 0.9473567 0.5335942 0.9219582 0.5469579 0.9561591 0.6067141 0.9478695 0.6044161 0.9398897 0.5469579 0.9561591 0.6044161 0.9398897 0.5508649 0.9473567 0.6446548 0.8550333 0.5854923 0.8898546 0.5892746 0.8971401 0.6446548 0.8550333 0.5892746 0.8971401 0.6501479 0.8613638 0.6067141 0.9478695 0.6980725 0.9061433 0.6931309 0.8993445 0.6067141 0.9478695 0.6931309 0.8993445 0.6044161 0.9398897 0.6878786 0.8015248 0.6446548 0.8550333 0.6501479 0.8613638 0.6878786 0.8015248 0.6501479 0.8613638 0.6952207 0.8055376 0.6980725 0.9061433 0.7698716 0.8404669 0.7626011 0.8357322 0.6980725 0.9061433 0.7626011 0.8357322 0.6931309 0.8993445 0.7099113 0.7361928 0.6878786 0.8015248 0.6952207 0.8055376 0.7099113 0.7361928 0.6952207 0.8055376 0.7181909 0.7374134 0.7698716 0.8404669 0.805994 0.7439449 0.7977274 0.7426789 0.7698716 0.8404669 0.7977274 0.7426789 0.7626011 0.8357322 0.7079079 0.6672323 0.7099113 0.7361928 0.7181909 0.7374134 0.7079079 0.6672323 0.7181909 0.7374134 0.7160975 0.6655284 0.805994 0.7439449 0.8036842 0.6542016 0.7955019 0.6559054 0.805994 0.7439449 0.7955019 0.6559054 0.7977274 0.7426789 0.6824093 0.6031783 0.7079079 0.6672323 0.7160975 0.6655284 0.6824093 0.6031783 0.7160975 0.6655284 0.6895133 0.5987558 0.8036842 0.6542016 0.7621865 0.5597578 0.755184 0.5648772 0.8036842 0.6542016 0.755184 0.5648772 0.7955019 0.6559054 0.6363372 0.5520971 0.6824093 0.6031783 0.6895133 0.5987558 0.6363372 0.5520971 0.6895133 0.5987558 0.6414682 0.5454815 0.7621865 0.5597578 0.6869103 0.4981178 0.6823456 0.505175 0.7621865 0.5597578 0.6823456 0.505175 0.755184 0.5648772 0.2104162 0.8514131 0.143481 0.8735651 0.1473353 0.8869712 0.2104162 0.8514131 0.1473353 0.8869712 0.2169834 0.8635993 0.1506353 0.9239773 0.2461854 0.9027647 0.2409412 0.8899002 0.1506353 0.9239773 0.2409412 0.8899002 0.1495942 0.9100083 0.143481 0.8735651 0.08394426 0.8894009 0.09953963 0.8974584 0.143481 0.8735651 0.09953963 0.8974584 0.1473353 0.8869712 0.08394426 0.8894009 0.09595149 0.9193546 0.1047738 0.9079731 0.08394426 0.8894009 0.1047738 0.9079731 0.09953963 0.8974584 0.09595149 0.9193546 0.1506353 0.9239773 0.1495942 0.9100083 0.09595149 0.9193546 0.1495942 0.9100083 0.1047738 0.9079731 0.1970052 0.4463993 0.2416276 0.4888317 0.2514402 0.4789149 0.1970052 0.4463993 0.2514402 0.4789149 0.2145496 0.4468065 0.2720718 0.4480171 0.2218506 0.4259023 0.2241438 0.4401152 0.2720718 0.4480171 0.2241438 0.4401152 0.2644645 0.4597806 0.2218506 0.4259023 0.1970052 0.4463993 0.2145496 0.4468065 0.2218506 0.4259023 0.2145496 0.4468065 0.2241438 0.4401152 0.2416276 0.4888317 0.2897233 0.540369 0.3013862 0.5328008 0.2416276 0.4888317 0.3013862 0.5328008 0.2514402 0.4789149 0.3457816 0.5124315 0.2720718 0.4480171 0.2644645 0.4597806 0.3457816 0.5124315 0.2644645 0.4597806 0.3350096 0.5212065 0.2897233 0.540369 0.3183615 0.6060181 0.3318063 0.6026808 0.2897233 0.540369 0.3318063 0.6026808 0.3013862 0.5328008 0.3961557 0.5923056 0.3457816 0.5124315 0.3350096 0.5212065 0.3961557 0.5923056 0.3350096 0.5212065 0.3828971 0.5968193 0.3183615 0.6060181 0.3240725 0.6776304 0.3378788 0.6788465 0.3183615 0.6060181 0.3378788 0.6788465 0.3318063 0.6026808 0.4080626 0.6912696 0.3961557 0.5923056 0.3828971 0.5968193 0.4080626 0.6912696 0.3828971 0.5968193 0.394182 0.6902573 0.3240725 0.6776304 0.30614 0.7472358 0.3188081 0.7528277 0.3240725 0.6776304 0.3188081 0.7528277 0.3378788 0.6788465 0.38667 0.7756754 0.4080626 0.6912696 0.394182 0.6902573 0.38667 0.7756754 0.394182 0.6902573 0.3740722 0.7699177 0.30614 0.7472358 0.2669385 0.8074305 0.2771298 0.8168204 0.30614 0.7472358 0.2771298 0.8168204 0.3188081 0.7528277 0.3286609 0.8567845 0.38667 0.7756754 0.3740722 0.7699177 0.3286609 0.8567845 0.3740722 0.7699177 0.3191924 0.8464625 0.2669385 0.8074305 0.2104162 0.8514131 0.2169834 0.8635993 0.2669385 0.8074305 0.2169834 0.8635993 0.2771298 0.8168204 0.2461854 0.9027647 0.3286609 0.8567845 0.3191924 0.8464625 0.2461854 0.9027647 0.3191924 0.8464625 0.2409412 0.8899002 0.5787637 0.5130403 0.6414682 0.5454815 0.6483533 0.536612 0.5787637 0.5130403 0.6483533 0.536612 0.583303 0.5028145 0.6823456 0.505175 0.5915694 0.4695322 0.5889685 0.4804716 0.6823456 0.505175 0.5889685 0.4804716 0.6763538 0.5146854 0.521789 0.491258 0.5787637 0.5130403 0.583303 0.5028145 0.521789 0.491258 0.583303 0.5028145 0.5365039 0.4859936 0.5915694 0.4695322 0.5376945 0.4649298 0.5433381 0.4757665 0.5915694 0.4695322 0.5433381 0.4757665 0.5889685 0.4804716 0.5376945 0.4649298 0.521789 0.491258 0.5365039 0.4859936 0.5376945 0.4649298 0.5365039 0.4859936 0.5433381 0.4757665 0.5892746 0.8971401 0.5335942 0.9219582 0.5485683 0.926421 0.5892746 0.8971401 0.5485683 0.926421 0.5943592 0.9071056 0.5335942 0.9219582 0.5508649 0.9473567 0.5559201 0.9362358 0.5335942 0.9219582 0.5559201 0.9362358 0.5485683 0.926421 0.5508649 0.9473567 0.6044161 0.9398897 0.6012298 0.9291062 0.5508649 0.9473567 0.6012298 0.9291062 0.5559201 0.9362358 0.6501479 0.8613638 0.5892746 0.8971401 0.5943592 0.9071056 0.6501479 0.8613638 0.5943592 0.9071056 0.6574779 0.8698351 0.6044161 0.9398897 0.6931309 0.8993445 0.6866312 0.8901747 0.6044161 0.9398897 0.6866312 0.8901747 0.6012298 0.9291062 0.6952207 0.8055376 0.6501479 0.8613638 0.6574779 0.8698351 0.6952207 0.8055376 0.6574779 0.8698351 0.7050413 0.810936 0.6931309 0.8993445 0.7626011 0.8357322 0.7530459 0.8294568 0.6931309 0.8993445 0.7530459 0.8294568 0.6866312 0.8901747 0.7181909 0.7374134 0.6952207 0.8055376 0.7050413 0.810936 0.7181909 0.7374134 0.7050413 0.810936 0.7292792 0.7390714 0.7626011 0.8357322 0.7977274 0.7426789 0.7866593 0.7409057 0.7626011 0.8357322 0.7866593 0.7409057 0.7530459 0.8294568 0.7160975 0.6655284 0.7181909 0.7374134 0.7292792 0.7390714 0.7160975 0.6655284 0.7292792 0.7390714 0.7270707 0.6632662 0.7977274 0.7426789 0.7955019 0.6559054 0.7845175 0.6582581 0.7977274 0.7426789 0.7845175 0.6582581 0.7866593 0.7409057 0.6895133 0.5987558 0.7160975 0.6655284 0.7270707 0.6632662 0.6895133 0.5987558 0.7270707 0.6632662 0.6990376 0.5928444 0.7955019 0.6559054 0.755184 0.5648772 0.7459816 0.5716599 0.7955019 0.6559054 0.7459816 0.5716599 0.7845175 0.6582581 0.6414682 0.5454815 0.6895133 0.5987558 0.6990376 0.5928444 0.6414682 0.5454815 0.6990376 0.5928444 0.6483533 0.536612 0.755184 0.5648772 0.6823456 0.505175 0.6763538 0.5146854 0.755184 0.5648772 0.6763538 0.5146854 0.7459816 0.5716599 0.258934 0.9680629 0.2702474 0.9678101 0.269118 0.9569957 0.258934 0.9680629 0.269118 0.9569957 0.2578045 0.9572486 0.4380245 0.9853677 0.449336 0.9856948 0.4497579 0.9711072 0.4380245 0.9853677 0.4497579 0.9711072 0.4384464 0.97078 0.8723527 0.8246403 0.8610392 0.8243862 0.8599086 0.8352004 0.8723527 0.8246403 0.8599086 0.8352004 0.871222 0.8354545 0.3274629 0.9675703 0.3161512 0.9672431 0.3157294 0.9818307 0.3274629 0.9675703 0.3157294 0.9818307 0.327041 0.9821578 0.06306761 0.9654257 0.06361883 0.980009 0.07448416 0.9795984 0.06306761 0.9654257 0.07448416 0.9795984 0.07393294 0.9650151 0.3656724 0.9686753 0.3652505 0.983263 0.3761191 0.9835773 0.3656724 0.9686753 0.3761191 0.9835773 0.376541 0.9689896 0.2747123 1 0.2860258 0.9997472 0.2857007 0.9836649 0.2747123 1 0.2857007 0.9836649 0.2743872 0.9839177 0.02486938 0.9668694 0.02542054 0.9814528 0.04149466 0.9808452 0.02486938 0.9668694 0.04149466 0.9808452 0.04094338 0.9662619 0.8557671 0.8513076 0.8444536 0.8510535 0.8441268 0.8671358 0.8557671 0.8513076 0.8441268 0.8671358 0.8554402 0.8673899 0.3274629 0.9675703 0.327041 0.9821578 0.3431198 0.9826229 0.3274629 0.9675703 0.3431198 0.9826229 0.3435418 0.9680352 0.8554316 0.7913251 0.8441182 0.791071 0.8611049 0.8096399 0.8554316 0.7913251 0.8611049 0.8096399 0.8724184 0.809894 0.08866894 0.9644581 0.0892201 0.9790415 0.1143686 0.978091 0.08866894 0.9644581 0.1143686 0.978091 0.1138174 0.9635077 0.2577404 0.9425023 0.2690539 0.9422494 0.2860426 0.9236824 0.2577404 0.9425023 0.2860426 0.9236824 0.2747292 0.9239352 0.3912813 0.9694159 0.3908594 0.9840036 0.4160154 0.9847311 0.3912813 0.9694159 0.4160154 0.9847311 0.4164373 0.9701436 0.8576406 0.769418 0.8463271 0.7691639 0.8441182 0.791071 0.8576406 0.769418 0.8441182 0.791071 0.8554316 0.7913251 0.2747292 0.9239352 0.2860426 0.9236824 0.283836 0.901775 0.2747292 0.9239352 0.283836 0.901775 0.2725226 0.9020279 0.4164373 0.9701436 0.4160154 0.9847311 0.4380245 0.9853677 0.4164373 0.9701436 0.4380245 0.9853677 0.4384464 0.97078 0.2743872 0.9839177 0.2857007 0.9836649 0.2702474 0.9678101 0.2743872 0.9839177 0.2702474 0.9678101 0.258934 0.9680629 0.04094338 0.9662619 0.04149466 0.9808452 0.06361883 0.980009 0.04094338 0.9662619 0.06361883 0.980009 0.06306761 0.9654257 0.871222 0.8354545 0.8599086 0.8352004 0.8444536 0.8510535 0.871222 0.8354545 0.8444536 0.8510535 0.8557671 0.8513076 0.3435418 0.9680352 0.3431198 0.9826229 0.3652505 0.983263 0.3435418 0.9680352 0.3652505 0.983263 0.3656724 0.9686753 0.07393294 0.9650151 0.07448416 0.9795984 0.0892201 0.9790415 0.07393294 0.9650151 0.0892201 0.9790415 0.08866894 0.9644581 0.8724184 0.809894 0.8611049 0.8096399 0.8610392 0.8243862 0.8724184 0.809894 0.8610392 0.8243862 0.8723527 0.8246403 0.376541 0.9689896 0.3761191 0.9835773 0.3908594 0.9840036 0.376541 0.9689896 0.3908594 0.9840036 0.3912813 0.9694159 0.2578045 0.9572486 0.269118 0.9569957 0.2690539 0.9422494 0.2578045 0.9572486 0.2690539 0.9422494 0.2577404 0.9425023</float_array>
          <technique_common>
            <accessor source="#Moon_shield_Moon_Shield1_0-mesh-map-0-array" count="1212" stride="2">
              <param name="S" type="float"/>
              <param name="T" type="float"/>
            </accessor>
          </technique_common>
        </source>
        <vertices id="Moon_shield_Moon_Shield1_0-mesh-vertices">
          <input semantic="POSITION" source="#Moon_shield_Moon_Shield1_0-mesh-positions"/>
        </vertices>
        <triangles material="Moon_Shield1-material" count="404">
          <input semantic="VERTEX" source="#Moon_shield_Moon_Shield1_0-mesh-vertices" offset="0"/>
          <input semantic="NORMAL" source="#Moon_shield_Moon_Shield1_0-mesh-normals" offset="1"/>
          <input semantic="TEXCOORD" source="#Moon_shield_Moon_Shield1_0-mesh-map-0" offset="2" set="0"/>
          <p>0 0 0 1 1 1 2 2 2 3 3 3 4 4 4 2 2 5 5 5 6 3 3 7 2 2 8 1 1 9 5 5 10 2 2 11 6 6 12 7 7 13 8 8 14 9 9 15 10 10 16 8 8 17 10 10 18 11 11 19 8 8 20 11 11 21 6 6 22 8 8 23 1 1 24 0 0 25 12 12 26 1 1 27 12 12 28 13 13 29 4 4 30 3 3 31 14 14 32 4 4 33 14 14 34 15 15 35 3 3 36 5 5 37 16 16 38 3 3 39 16 16 40 14 14 41 5 5 42 1 1 43 13 13 44 5 5 45 13 13 46 16 16 47 13 13 48 12 12 49 17 17 50 13 13 51 17 17 52 18 18 53 15 15 54 14 14 55 19 19 56 15 15 57 19 19 58 20 20 59 14 14 60 16 16 61 21 21 62 14 14 63 21 21 64 19 19 65 16 16 66 13 13 67 18 18 68 16 16 69 18 18 70 21 21 71 18 18 72 17 17 73 22 22 74 18 18 75 22 22 76 23 23 77 20 20 78 19 19 79 24 24 80 20 20 81 24 24 82 25 25 83 19 19 84 21 21 85 26 26 86 19 19 87 26 26 88 24 24 89 21 21 90 18 18 91 23 23 92 21 21 93 23 23 94 26 26 95 23 23 96 22 22 97 27 27 98 23 23 99 27 27 100 28 28 101 25 25 102 24 24 103 29 29 104 25 25 105 29 29 106 30 30 107 24 24 108 26 26 109 31 31 110 24 24 111 31 31 112 29 29 113 26 26 114 23 23 115 28 28 116 26 26 117 28 28 118 31 31 119 28 28 120 27 27 121 32 32 122 28 28 123 32 32 124 33 33 125 30 30 126 29 29 127 34 34 128 30 30 129 34 34 130 35 35 131 29 29 132 31 31 133 36 36 134 29 29 135 36 36 136 34 34 137 31 31 138 28 28 139 33 33 140 31 31 141 33 33 142 36 36 143 33 33 144 32 32 145 7 7 146 33 33 147 7 7 148 6 6 149 35 35 150 34 34 151 10 10 152 35 35 153 10 10 154 9 9 155 34 34 156 36 36 157 11 11 158 34 34 159 11 11 160 10 10 161 36 36 162 33 33 163 6 6 164 36 36 165 6 6 166 11 11 167 37 37 168 38 37 169 39 37 170 37 38 171 39 38 172 40 38 173 41 39 174 42 39 175 43 39 176 41 40 177 43 40 178 44 40 179 45 41 180 46 41 181 47 41 182 45 42 183 47 42 184 48 42 185 49 43 186 50 43 187 51 43 188 49 44 189 51 44 190 52 44 191 53 45 192 54 45 193 55 45 194 53 45 195 55 45 196 56 45 197 57 46 198 58 46 199 59 46 200 57 47 201 59 47 202 60 47 203 61 48 204 62 48 205 63 48 206 61 49 207 63 49 208 64 49 209 65 50 210 66 51 211 67 52 212 65 50 213 67 52 214 68 53 215 69 54 216 70 55 217 71 56 218 69 54 219 71 56 220 72 57 221 73 58 222 74 58 223 75 58 224 73 59 225 75 59 226 76 59 227 77 60 228 78 61 229 79 62 230 77 60 231 79 62 232 80 63 233 81 64 234 82 64 235 83 64 236 81 65 237 83 65 238 84 65 239 85 66 240 86 67 241 87 68 242 85 66 243 87 68 244 88 69 245 89 65 246 90 65 247 91 65 248 89 65 249 91 65 250 92 65 251 93 70 252 94 71 253 95 72 254 93 70 255 95 72 256 96 73 257 97 74 258 98 74 259 99 74 260 97 75 261 99 75 262 100 75 263 101 76 264 102 77 265 103 78 266 101 76 267 103 78 268 104 79 269 105 80 270 106 80 271 90 80 272 105 65 273 90 65 274 89 65 275 100 81 276 99 81 277 107 81 278 100 44 279 107 44 280 108 44 281 104 79 282 103 78 283 109 82 284 104 79 285 109 82 286 110 83 287 76 84 288 75 84 289 50 84 290 76 85 291 50 85 292 49 85 293 80 63 294 79 62 295 66 51 296 80 63 297 66 51 298 65 50 299 60 86 300 59 86 301 82 86 302 60 87 303 82 87 304 81 87 305 88 69 306 87 68 307 70 55 308 88 69 309 70 55 310 69 54 311 68 53 312 67 52 313 94 71 314 68 53 315 94 71 316 93 70 317 92 88 318 91 88 319 58 88 320 92 65 321 58 65 322 57 65 323 72 57 324 71 56 325 102 77 326 72 57 327 102 77 328 101 76 329 52 89 330 51 89 331 98 89 332 52 44 333 98 44 334 97 44 335 111 90 336 112 90 337 113 90 338 111 91 339 113 91 340 114 91 341 115 92 342 116 92 343 117 92 344 115 93 345 117 93 346 118 93 347 119 41 348 120 41 349 121 41 350 119 94 351 121 94 352 122 94 353 123 95 354 124 96 355 125 97 356 123 95 357 125 97 358 126 98 359 124 96 360 127 99 361 128 100 362 124 96 363 128 100 364 125 97 365 129 101 366 130 102 367 131 103 368 129 101 369 131 103 370 132 104 371 130 102 372 133 105 373 134 106 374 130 102 375 134 106 376 131 103 377 133 105 378 135 107 379 136 108 380 133 105 381 136 108 382 134 106 383 135 107 384 137 109 385 138 110 386 135 107 387 138 110 388 136 108 389 137 109 390 139 111 391 140 112 392 137 109 393 140 112 394 138 110 395 139 111 396 141 113 397 142 114 398 139 111 399 142 114 400 140 112 401 141 113 402 123 95 403 126 98 404 141 113 405 126 98 406 142 114 407 143 115 408 144 115 409 145 115 410 143 116 411 145 116 412 146 116 413 147 117 414 148 117 415 149 117 416 147 118 417 149 118 418 150 118 419 144 119 420 151 119 421 152 119 422 144 120 423 152 120 424 145 120 425 153 121 426 154 121 427 155 121 428 153 122 429 155 122 430 156 122 431 157 123 432 147 123 433 150 123 434 157 124 435 150 124 436 158 124 437 159 125 438 160 125 439 161 125 440 159 126 441 161 127 442 162 128 443 163 129 444 164 130 445 165 131 446 163 132 447 165 132 448 166 132 449 167 133 450 168 133 451 169 133 452 167 134 453 169 134 454 170 134 455 160 135 456 171 135 457 172 135 458 160 136 459 172 136 460 161 136 461 173 137 462 163 137 463 166 137 464 173 138 465 166 138 466 174 138 467 171 139 468 175 139 469 176 139 470 171 140 471 176 140 472 172 140 473 177 141 474 173 141 475 174 141 476 177 142 477 174 142 478 178 142 479 175 143 480 179 143 481 180 143 482 175 144 483 180 144 484 176 144 485 181 145 486 177 145 487 178 145 488 181 146 489 178 146 490 182 146 491 179 147 492 183 147 493 184 147 494 179 148 495 184 148 496 180 148 497 185 149 498 181 149 499 182 149 500 185 150 501 182 150 502 186 150 503 183 151 504 187 151 505 188 151 506 183 152 507 188 152 508 184 152 509 189 153 510 185 153 511 186 153 512 189 154 513 186 154 514 190 154 515 187 155 516 143 155 517 146 155 518 187 156 519 146 156 520 188 156 521 148 157 522 189 157 523 190 157 524 148 158 525 190 158 526 149 158 527 191 159 528 192 160 529 193 161 530 191 159 531 193 161 532 194 162 533 192 160 534 195 163 535 196 164 536 192 160 537 196 164 538 193 161 539 195 163 540 197 165 541 198 166 542 195 163 543 198 166 544 196 164 545 197 165 546 199 167 547 200 168 548 197 165 549 200 168 550 198 166 551 199 167 552 201 169 553 202 170 554 199 167 555 202 170 556 200 168 557 201 169 558 203 171 559 204 172 560 201 169 561 204 172 562 202 170 563 203 171 564 205 173 565 206 174 566 203 171 567 206 174 568 204 172 569 205 173 570 207 175 571 208 176 572 205 173 573 208 176 574 206 174 575 207 175 576 209 177 577 210 178 578 207 175 579 210 178 580 208 176 581 211 179 582 212 179 583 213 179 584 211 180 585 213 180 586 214 180 587 215 181 588 216 181 589 217 181 590 215 182 591 217 182 592 218 182 593 212 183 594 219 183 595 220 183 596 212 184 597 220 184 598 213 184 599 219 185 600 221 185 601 222 185 602 219 186 603 222 186 604 220 186 605 221 187 606 215 187 607 218 187 608 221 188 609 218 188 610 222 188 611 223 189 612 224 189 613 225 189 614 223 190 615 225 190 616 226 190 617 227 191 618 228 191 619 229 191 620 227 192 621 229 192 622 230 192 623 228 193 624 223 193 625 226 193 626 228 194 627 226 194 628 229 194 629 224 195 630 231 195 631 232 195 632 224 196 633 232 196 634 225 196 635 233 197 636 227 197 637 230 197 638 233 198 639 230 198 640 234 198 641 231 199 642 235 199 643 236 199 644 231 200 645 236 200 646 232 200 647 237 201 648 233 201 649 234 201 650 237 202 651 234 202 652 238 202 653 235 203 654 239 203 655 240 203 656 235 204 657 240 204 658 236 204 659 241 205 660 237 205 661 238 205 662 241 206 663 238 206 664 242 206 665 239 207 666 243 207 667 244 207 668 239 208 669 244 208 670 240 208 671 245 209 672 241 209 673 242 209 674 245 210 675 242 210 676 246 210 677 243 211 678 247 211 679 248 211 680 243 212 681 248 212 682 244 212 683 249 213 684 245 213 685 246 213 686 249 214 687 246 214 688 250 214 689 247 215 690 211 215 691 214 215 692 247 216 693 214 216 694 248 216 695 216 217 696 249 217 697 250 217 698 216 218 699 250 218 700 217 218 701 251 219 702 252 219 703 253 219 704 251 220 705 253 220 706 254 220 707 255 221 708 256 221 709 257 221 710 255 222 711 257 222 712 258 222 713 259 223 714 251 223 715 254 223 716 259 224 717 254 224 718 260 224 719 256 225 720 261 225 721 262 225 722 256 226 723 262 226 724 257 226 725 261 227 726 259 227 727 260 227 728 261 228 729 260 228 730 262 228 731 263 229 732 264 229 733 265 229 734 263 230 735 265 230 736 266 230 737 264 231 738 267 231 739 268 231 740 264 232 741 268 232 742 265 232 743 267 233 744 269 233 745 270 233 746 267 234 747 270 234 748 268 234 749 271 235 750 263 235 751 266 235 752 271 236 753 266 236 754 272 236 755 269 237 756 273 237 757 274 237 758 269 238 759 274 238 760 270 238 761 275 239 762 271 239 763 272 239 764 275 240 765 272 240 766 276 240 767 273 241 768 277 241 769 278 241 770 273 242 771 278 242 772 274 242 773 279 243 774 275 243 775 276 243 776 279 244 777 276 244 778 280 244 779 277 245 780 281 245 781 282 245 782 277 246 783 282 246 784 278 246 785 283 247 786 279 247 787 280 247 788 283 248 789 280 248 790 284 248 791 281 249 792 285 249 793 286 249 794 281 250 795 286 250 796 282 250 797 287 251 798 283 251 799 284 251 800 287 252 801 284 252 802 288 252 803 285 253 804 289 253 805 290 253 806 285 254 807 290 254 808 286 254 809 252 255 810 287 255 811 288 255 812 252 256 813 288 256 814 253 256 815 289 257 816 255 257 817 258 257 818 289 258 819 258 258 820 290 258 821 291 259 822 292 260 823 293 261 824 291 259 825 293 261 826 294 262 827 295 263 828 296 264 829 297 265 830 295 263 831 297 265 832 298 266 833 292 260 834 299 267 835 300 268 836 292 260 837 300 268 838 293 261 839 301 269 840 302 269 841 303 269 842 301 270 843 303 270 844 304 270 845 305 271 846 295 263 847 298 266 848 305 271 849 298 266 850 306 272 851 307 273 852 308 274 853 309 275 854 307 273 855 309 275 856 310 276 857 311 277 858 312 278 859 313 279 860 311 277 861 313 279 862 314 280 863 315 281 864 316 281 865 317 281 866 315 282 867 317 282 868 318 282 869 308 274 870 319 283 871 320 284 872 308 274 873 320 284 874 309 275 875 321 285 876 311 277 877 314 280 878 321 285 879 314 280 880 322 286 881 319 283 882 323 287 883 324 288 884 319 283 885 324 288 886 320 284 887 325 289 888 321 285 889 322 286 890 325 289 891 322 286 892 326 290 893 323 287 894 327 291 895 328 292 896 323 287 897 328 292 898 324 288 899 329 293 900 325 289 901 326 290 902 329 293 903 326 290 904 330 294 905 327 291 906 331 295 907 332 296 908 327 291 909 332 296 910 328 292 911 333 297 912 329 293 913 330 294 914 333 297 915 330 294 916 334 298 917 331 295 918 335 299 919 336 300 920 331 295 921 336 300 922 332 296 923 337 301 924 333 297 925 334 298 926 337 301 927 334 298 928 338 302 929 335 299 930 291 259 931 294 262 932 335 299 933 294 262 934 336 300 935 296 264 936 337 301 937 338 302 938 296 264 939 338 302 940 297 265 941 339 303 942 340 304 943 341 305 944 339 303 945 341 305 946 342 306 947 343 307 948 344 308 949 345 309 950 343 307 951 345 309 952 346 310 953 347 311 954 339 303 955 342 306 956 347 311 957 342 306 958 348 312 959 344 308 960 349 313 961 350 314 962 344 308 963 350 314 964 345 309 965 351 315 966 352 315 967 353 315 968 351 316 969 353 316 970 354 316 971 355 317 972 356 318 973 357 319 974 355 317 975 357 319 976 358 320 977 359 321 978 360 321 979 361 321 980 359 322 981 361 322 982 362 322 983 363 323 984 364 324 985 365 325 986 363 323 987 365 325 988 366 326 989 367 327 990 355 317 991 358 320 992 367 327 993 358 320 994 368 328 995 364 324 996 369 329 997 370 330 998 364 324 999 370 330 1000 365 325 1001 371 331 1002 367 327 1003 368 328 1004 371 331 1005 368 328 1006 372 332 1007 369 329 1008 373 333 1009 374 334 1010 369 329 1011 374 334 1012 370 330 1013 375 335 1014 371 331 1015 372 332 1016 375 335 1017 372 332 1018 376 336 1019 373 333 1020 377 337 1021 378 338 1022 373 333 1023 378 338 1024 374 334 1025 379 339 1026 375 335 1027 376 336 1028 379 339 1029 376 336 1030 380 340 1031 377 337 1032 381 341 1033 382 342 1034 377 337 1035 382 342 1036 378 338 1037 383 343 1038 379 339 1039 380 340 1040 383 343 1041 380 340 1042 384 344 1043 381 341 1044 385 345 1045 386 346 1046 381 341 1047 386 346 1048 382 342 1049 340 304 1050 383 343 1051 384 344 1052 340 304 1053 384 344 1054 341 305 1055 385 345 1056 343 307 1057 346 310 1058 385 345 1059 346 310 1060 386 346 1061 387 347 1062 388 347 1063 389 347 1064 387 348 1065 389 348 1066 390 348 1067 391 45 1068 392 45 1069 393 45 1070 391 45 1071 393 45 1072 394 45 1073 395 349 1074 396 349 1075 397 349 1076 395 350 1077 397 350 1078 398 350 1079 399 48 1080 400 48 1081 401 48 1082 399 49 1083 401 49 1084 402 49 1085 403 351 1086 404 352 1087 405 353 1088 403 351 1089 405 353 1090 406 354 1091 407 355 1092 408 356 1093 409 357 1094 407 355 1095 409 357 1096 410 358 1097 411 359 1098 412 359 1099 413 359 1100 411 44 1101 413 44 1102 414 44 1103 415 360 1104 416 361 1105 417 362 1106 415 360 1107 417 362 1108 418 363 1109 419 364 1110 420 364 1111 421 364 1112 419 65 1113 421 65 1114 422 65 1115 423 365 1116 424 67 1117 425 366 1118 423 365 1119 425 366 1120 426 367 1121 427 65 1122 428 65 1123 429 65 1124 427 368 1125 429 368 1126 430 368 1127 431 369 1128 432 370 1129 433 371 1130 431 369 1131 433 371 1132 434 372 1133 435 373 1134 436 373 1135 437 373 1136 435 75 1137 437 75 1138 438 75 1139 439 374 1140 440 375 1141 441 376 1142 439 374 1143 441 376 1144 442 377 1145 443 65 1146 444 65 1147 428 65 1148 443 65 1149 428 65 1150 427 65 1151 438 378 1152 437 378 1153 445 378 1154 438 379 1155 445 379 1156 446 379 1157 442 377 1158 441 376 1159 447 380 1160 442 377 1161 447 380 1162 448 381 1163 414 44 1164 413 44 1165 388 44 1166 414 44 1167 388 44 1168 387 44 1169 418 363 1170 417 362 1171 404 352 1172 418 363 1173 404 352 1174 403 351 1175 398 65 1176 397 65 1177 420 65 1178 398 65 1179 420 65 1180 419 65 1181 426 367 1182 425 366 1183 408 356 1184 426 367 1185 408 356 1186 407 355 1187 406 354 1188 405 353 1189 432 370 1190 406 354 1191 432 370 1192 431 369 1193 430 382 1194 429 382 1195 396 382 1196 430 65 1197 396 65 1198 395 65 1199 410 358 1200 409 357 1201 440 375 1202 410 358 1203 440 375 1204 439 374 1205 390 383 1206 389 383 1207 436 383 1208 390 384 1209 436 384 1210 435 384 1211</p>
        </triangles>
      </mesh>
    </geometry>
  </library_geometries>
  <library_visual_scenes>
    <visual_scene id="Scene" name="Scene">
      <node id="Moon_shield_Moon_Shield1_0" name="Moon_shield_Moon_Shield1_0" type="NODE">
        <matrix sid="transform">1 0 0 0 0 1 0 0 0 0 1 0 0 0 0 1</matrix>
        <instance_geometry url="#Moon_shield_Moon_Shield1_0-mesh" name="Moon_shield_Moon_Shield1_0">
          <bind_material>
            <technique_common>
              <instance_material symbol="Moon_Shield1-material" target="#Moon_Shield1-material">
                <bind_vertex_input semantic="UVMap" input_semantic="TEXCOORD" input_set="0"/>
              </instance_material>
            </technique_common>
          </bind_material>
        </instance_geometry>
      </node>
    </visual_scene>
  </library_visual_scenes>
  <scene>
    <instance_visual_scene url="#Scene"/>
  </scene>
</COLLADA>